<?xml version="1.0" encoding="UTF-8"?>
<svg version="1.1" xmlns="http://www.w3.org/2000/svg" width="1024" height="1024">
<path d="M0 0 C337.92 0 675.84 0 1024 0 C1024 337.92 1024 675.84 1024 1024 C686.08 1024 348.16 1024 0 1024 C0 686.08 0 348.16 0 0 Z " fill="none" transform="translate(0,0)"/>
<path d="M0 0 C1.875 2.75 1.875 2.75 2.9375 4.9375 C3.72939525 6.90950145 3.72939525 6.90950145 5.75 7.66796875 C8.02487189 8.82631344 9.14135741 9.96892225 10.8125 11.875 C19.71877403 21.06919237 32.6069789 27.18207802 44.875 30.4375 C45.63039063 30.64955078 46.38578125 30.86160156 47.1640625 31.08007812 C64.81297775 35.88652669 82.53349529 34.46083232 99.87939453 29.13452148 C103.61353262 28.41501237 106.67922173 29.98492178 109.875 31.75 C128.03972698 44.9968901 134.75777524 68.63103067 141.875 89 C142.50614314 90.79824888 143.13749601 92.59642415 143.76904297 94.39453125 C144.76186775 97.22172773 145.75391512 100.04917624 146.74264526 102.87780762 C148.8882795 109.00091429 151.09349816 115.09929475 153.33966064 121.18621826 C154.87455971 125.35560367 156.38612939 129.53324629 157.89453125 133.71228027 C158.62633717 135.72321118 159.3680752 137.7305578 160.12011719 139.73400879 C161.172439 142.54275179 162.18737653 145.36257864 163.1953125 148.1875 C163.51315704 149.0087738 163.83100159 149.83004761 164.15847778 150.6762085 C166.44369026 157.26424341 165.35053966 161.37639297 162.875 167.75 C162.07228023 170.02925075 161.27095673 172.30899353 160.47070312 174.58911133 C159.53965638 177.17268134 158.59787847 179.75230223 157.65625 182.33203125 C157.15196105 183.71820069 156.6477718 185.1044064 156.14367676 186.49064636 C155.09338435 189.37657571 154.04082441 192.26166596 152.98681641 195.14624023 C151.6397872 198.8337927 150.30018271 202.52399488 148.96244049 206.21492481 C147.92623795 209.07044852 146.8852915 211.92422558 145.84300232 214.77753258 C145.34699005 216.13763054 144.8526316 217.49833287 144.36000061 218.85965919 C143.671387 220.76086166 142.97548713 222.65942022 142.27929688 224.55786133 C141.88641479 225.63578445 141.49353271 226.71370758 141.08874512 227.82429504 C139.8913712 230.71053759 138.72559435 233.22840903 136.875 235.75 C134.08900429 236.13060051 131.94127249 236.22962905 129.1875 236.0625 C128.1346582 236.02866211 128.1346582 236.02866211 127.06054688 235.99414062 C125.3311167 235.93531647 123.60278562 235.84563389 121.875 235.75 C117.87269449 226.17616016 113.88080199 216.59809045 109.90205383 207.01443481 C108.03250143 202.5162184 106.1486996 198.02463293 104.2419281 193.54206848 C102.964051 190.53213989 101.70260567 187.51531423 100.4375 184.5 C99.73886841 182.88097778 99.73886841 182.88097778 99.02612305 181.22924805 C98.6062915 180.22031494 98.18645996 179.21138184 97.75390625 178.171875 C97.3885376 177.31174805 97.02316895 176.45162109 96.64672852 175.56542969 C94.46561773 167.60827385 96.71572008 160.31564348 98.71875 152.55078125 C99.15157288 150.8209626 99.15157288 150.8209626 99.59313965 149.05619812 C100.51158129 145.3893382 101.44227366 141.7257502 102.375 138.0625 C103.30648521 134.38825491 104.23517743 130.71338364 105.15686035 127.03666687 C105.72954216 124.75358485 106.30802206 122.47194755 106.89294434 120.19197083 C107.15321411 119.15707016 107.41348389 118.12216949 107.68164062 117.0559082 C107.91258423 116.14960159 108.14352783 115.24329498 108.38146973 114.30952454 C108.87993582 111.72440208 108.96531526 109.37570181 108.875 106.75 C107.225 106.42 105.575 106.09 103.875 105.75 C101.50506445 111.72315626 99.76231791 117.66814569 98.23828125 123.90625 C97.99750351 124.87502075 97.75672577 125.8437915 97.50865173 126.84191895 C96.73052467 129.9768724 95.95898002 133.11340486 95.1875 136.25 C94.65314299 138.40766946 94.11830948 140.56522096 93.58300781 142.72265625 C92.51428404 147.03202239 91.4478373 151.34194139 90.38330078 155.65234375 C88.48544885 163.33224063 86.56612014 171.00671782 84.6434021 178.68041992 C83.82880289 181.93248681 83.01602906 185.18500898 82.203125 188.4375 C81.76041667 190.20833333 81.31770833 191.97916667 80.875 193.75 C79.47509817 193.2856451 78.07539907 192.82067899 76.67578125 192.35546875 C75.85029785 192.08138184 75.02481445 191.80729492 74.17431641 191.52490234 C72.53905605 190.97379634 70.91261847 190.39620467 69.29296875 189.80078125 C56.99347044 185.72966885 42.68091067 187.01295917 30.11328125 189.3125 C20.893763 190.55808027 13.71119013 188.88994054 4.90625 186.20703125 C3.05477356 185.65881966 3.05477356 185.65881966 1.16589355 185.09953308 C-2.10558179 184.13074014 -5.37252409 183.14747064 -8.63867188 182.16088867 C-11.90759196 181.17611444 -15.18047159 180.20470238 -18.453125 179.23242188 C-23.45058958 177.74662129 -28.44495647 176.25079441 -33.4375 174.74853516 C-37.51386698 173.52442969 -41.59422153 172.32010306 -45.6875 171.15380859 C-46.48998169 170.92408859 -47.29246338 170.69436859 -48.1192627 170.45768738 C-49.54695622 170.05112221 -50.97613377 169.64971274 -52.40710449 169.25483704 C-55.304526 168.42762329 -56.95483975 167.92016025 -59.125 165.75 C-59.52438384 158.0249362 -56.98333877 150.03032569 -55.2413311 142.55965996 C-54.73502559 140.38607786 -54.2371918 138.21070214 -53.74147034 136.03468323 C-52.33223144 129.85546915 -50.90815038 123.67970765 -49.47875977 117.50512695 C-48.60054146 113.7088382 -47.73190983 109.91045307 -46.86879158 106.11070442 C-46.54041925 104.67428483 -46.20835697 103.23870314 -45.87237358 101.80404472 C-44.13386781 94.37958269 -42.68699076 87.41647947 -43.125 79.75 C-44.775 79.42 -46.425 79.09 -48.125 78.75 C-50.90190726 89.67592791 -53.511194 100.63013268 -56 111.625 C-56.69594674 114.68895403 -57.39291956 117.75267442 -58.08984375 120.81640625 C-58.26159622 121.57223495 -58.43334869 122.32806366 -58.61030579 123.10679626 C-59.70892799 127.9372587 -60.82024323 132.76456161 -61.94140625 137.58984375 C-62.35447021 139.3680249 -62.35447021 139.3680249 -62.77587891 141.18212891 C-63.28582741 143.37354633 -63.79713652 145.56464776 -64.31005859 147.75537109 C-66.49515839 157.00004167 -66.49515839 157.00004167 -67.375 166.4375 C-67.40078125 167.18386719 -67.4265625 167.93023437 -67.453125 168.69921875 C-67.02927884 171.34825722 -66.1469435 172.02923675 -64.125 173.75 C-62.3210149 174.61713793 -62.3210149 174.61713793 -60.30078125 175.20117188 C-59.53181519 175.44610382 -58.76284912 175.69103577 -57.97058105 175.94338989 C-57.13466431 176.19925873 -56.29874756 176.45512756 -55.4375 176.71875 C-54.55936646 176.9958078 -53.68123291 177.2728656 -52.77648926 177.55831909 C-49.89548782 178.46487211 -47.01051917 179.35794057 -44.125 180.25 C-42.13325679 180.87124509 -40.14172181 181.49315813 -38.15039062 182.11572266 C-35.11268051 183.06516818 -32.07471934 184.01372782 -29.03552246 184.95840454 C-22.61918896 186.9557196 -16.22572098 189.01293159 -9.84375 191.1171875 C-7.50744899 191.8798903 -5.17061161 192.6409201 -2.83349609 193.40112305 C-1.38006213 193.87751391 0.07151089 194.35962671 1.52099609 194.84790039 C12.79243 198.63804876 22.33859206 199.72353807 34.125 197.75 C49.08704511 195.64094768 64.08332969 195.30690818 77.25 203.9375 C85.35777704 210.20804677 92.13528905 217.67902547 94.875 227.75 C95.69903708 235.4357305 96.04472758 243.01428622 91.875 249.75 C88.98788548 251.19355726 86.49903274 250.86680439 83.27319336 250.86010742 C81.86685688 250.86065027 80.46052041 250.86123729 79.05418396 250.86186218 C78.30690977 250.86043402 77.55963558 250.85900585 76.78971672 250.85753441 C72.82653914 250.85401311 68.86350317 250.87983154 64.90039062 250.90039062 C59.85966204 250.92467239 54.81934318 250.94048879 49.77856445 250.92504883 C45.7039642 250.9133349 41.63038218 250.93092784 37.55594063 250.96749306 C36.00876617 250.97606838 34.46149327 250.97408965 32.91435051 250.960989 C24.56168824 250.89559367 18.53261398 251.11975665 11.80514526 256.49850464 C9.52875505 257.97450328 8.4672029 258.07688972 5.80151367 257.76928711 C4.48212937 257.47311124 3.17184615 257.13299499 1.875 256.75 C0.62243408 256.41299072 -0.63013184 256.07598145 -1.9206543 255.72875977 C-3.26564044 255.30636959 -4.60840123 254.87684806 -5.94921875 254.44140625 C-7.08224426 254.08398598 -7.08224426 254.08398598 -8.23815918 253.71934509 C-9.89142272 253.19774024 -11.54380736 252.6733433 -13.19540405 252.14648438 C-17.81229755 250.67522879 -22.43691869 249.2288301 -27.0625 247.78515625 C-28.07265671 247.46982941 -29.08281342 247.15450256 -30.12358093 246.82962036 C-38.70612592 244.16381897 -47.31657515 241.59674583 -55.9375 239.05859375 C-56.61373728 238.85947451 -57.28997456 238.66035526 -57.98670387 238.4552021 C-64.09489102 236.65766298 -70.20469007 234.86564589 -76.31625366 233.07962036 C-101.59374672 225.69235732 -101.59374672 225.69235732 -110.05078125 222.96875 C-111.11337158 222.62779297 -112.17596191 222.28683594 -113.27075195 221.93554688 C-118.17768257 219.89739316 -122.23560701 217.03493 -125.75 213.0625 C-126.29914063 212.46050781 -126.84828125 211.85851562 -127.4140625 211.23828125 C-132.2491499 204.2064304 -133.79340984 197.89899623 -133.625 189.4375 C-133.61291504 188.4175293 -133.60083008 187.39755859 -133.58837891 186.34667969 C-132.32799893 134.41902485 -125.38568759 63.33449213 -86.90161133 25.03393555 C-72.45811622 11.31565569 -19.28658284 -13.88633965 0 0 Z " fill="#97A0A7" transform="translate(419.125,234.25)"/>
<path d="M0 0 C0.83378898 -0.00779995 1.66757795 -0.01559991 2.52663326 -0.02363622 C5.31906831 -0.04357173 8.11014286 -0.02778592 10.90258789 -0.01205444 C12.90504756 -0.01882988 14.90750101 -0.02773259 16.90994263 -0.03860474 C22.34798055 -0.06141333 27.78554457 -0.05255512 33.22359085 -0.03670931 C38.91209448 -0.0240585 44.60055729 -0.03578815 50.2890625 -0.04364014 C59.84227796 -0.05273906 69.3953002 -0.0407423 78.94848633 -0.01693726 C89.9964048 0.01027436 101.04386193 0.00146038 112.09176922 -0.02606928 C121.57386317 -0.04875232 131.05581817 -0.05196434 140.53793049 -0.03887594 C146.20268123 -0.03107705 151.86721506 -0.03005202 157.5319519 -0.04655838 C162.85744723 -0.06099202 168.18234722 -0.05100124 173.50777817 -0.0220871 C175.46331671 -0.01547043 177.41890528 -0.01738384 179.37442398 -0.02840042 C182.04212385 -0.0420446 184.70791067 -0.02495473 187.37548828 0 C188.15126693 -0.01115361 188.92704557 -0.02230722 189.72633266 -0.03379881 C193.6860672 0.03816084 195.52473241 0.51005969 198.70481873 2.94584084 C200.68774414 5.63491821 200.68774414 5.63491821 200.72680664 9.29507446 C199.70502735 14.38856123 197.88402708 19.22010389 196.06274414 24.07241821 C195.67086914 25.1382312 195.27899414 26.20404419 194.87524414 27.30215454 C193.98364334 29.72619421 193.08903313 32.14893916 192.19067383 34.57046509 C190.5620569 38.9664637 188.95627808 43.3706853 187.35180664 47.77554321 C178.96396334 70.79025011 170.4797449 93.76922557 161.9763031 116.74142456 C159.7154688 122.85114012 157.46042125 128.96296086 155.20959473 135.07637024 C153.67627067 139.24091768 152.14146828 143.4049197 150.60662842 147.56890869 C149.88133767 149.5378608 149.15674398 151.50706984 148.43292236 153.4765625 C146.2053014 159.53723505 143.95919705 165.59053556 141.68774414 171.63491821 C141.40457336 172.39316895 141.12140259 173.15141968 140.82965088 173.93264771 C140.04223279 176.02929838 139.24087832 178.11997371 138.43383789 180.20913696 C137.99096436 181.36631226 137.54809082 182.52348755 137.09179688 183.71572876 C134.74760428 188.58957867 131.52063736 191.2184716 126.68774414 193.63491821 C123.60205378 193.74556737 120.53824021 193.79427554 117.45181274 193.79986572 C116.48127783 193.80550927 115.51074292 193.81115281 114.51079786 193.81696737 C111.23466135 193.83476506 107.95853989 193.84541275 104.68237305 193.85610962 C102.3392365 193.8673236 99.99610191 193.87895577 97.65296936 193.89097595 C91.24998041 193.9224455 84.84698082 193.94752242 78.44395876 193.97117281 C74.41346212 193.98623236 70.38297568 194.0033054 66.35248947 194.02091599 C65.68132866 194.02384458 65.01016785 194.02677317 64.31866883 194.02979051 C62.95400862 194.03574925 61.58934841 194.04171046 60.22468822 194.0476741 C47.37943069 194.10355766 34.53415442 194.1531099 21.6888638 194.20067911 C10.82322885 194.24108175 -0.04236711 194.28741136 -10.90795898 194.33804321 C-48.04271527 194.5103243 -85.17701869 194.6377541 -122.31225586 194.63491821 C-123.36093149 194.63499563 -124.40960712 194.63507305 -125.49006081 194.63515282 C-136.84047649 194.63490573 -148.18992093 194.60871921 -159.53990555 194.50596237 C-162.36619609 194.48068158 -165.19219839 194.465844 -168.01859665 194.46123123 C-171.739118 194.45001156 -175.45784861 194.40788155 -179.17797852 194.35513306 C-180.21515644 194.35786602 -181.25233437 194.36059898 -182.32094193 194.36341476 C-188.67412309 194.2242713 -193.56566189 193.09187263 -198.31225586 188.63491821 C-200.38528805 185.17870691 -200.80668512 182.67275715 -200.31225586 178.63491821 C-198.51231812 175.9350116 -197.22848286 174.09303171 -194.31225586 172.63491821 C-192.71571555 172.54226061 -191.1153087 172.51299436 -189.51608276 172.5146637 C-188.50363495 172.51328903 -187.49118713 172.51191437 -186.44805908 172.51049805 C-185.33316101 172.51409332 -184.21826294 172.5176886 -183.06958008 172.52139282 C-181.89885956 172.5212468 -180.72813904 172.52110077 -179.52194214 172.52095032 C-176.30726976 172.52152861 -173.09264063 172.52655228 -169.87797689 172.53352427 C-166.52006308 172.53976526 -163.16214846 172.5403622 -159.80422974 172.54154968 C-153.44358038 172.54466079 -147.08294817 172.55287123 -140.72230637 172.56289917 C-133.48177135 172.57406713 -126.24123552 172.57957248 -119.00069404 172.58459461 C-104.10453842 172.59505401 -89.20839885 172.61264921 -74.31225586 172.63491821 C-74.10055756 171.25660576 -74.10055756 171.25660576 -73.88458252 169.85044861 C-73.22544029 166.14715813 -72.02148286 162.79508284 -70.67163086 159.30288696 C-70.39765976 158.5797934 -70.12368866 157.85669983 -69.84141541 157.11169434 C-69.23945464 155.52401097 -68.63509613 153.93723514 -68.02865601 152.35125732 C-66.32008143 147.88032443 -64.63179437 143.40172222 -62.94116211 138.92398071 C-62.57380447 137.9522139 -62.20644684 136.98044708 -61.82795715 135.97923279 C-57.14678022 123.57852471 -52.57567832 111.13725519 -47.99975586 98.69741821 C-47.1061488 96.27008006 -46.21251267 93.84275261 -45.31884766 91.41543579 C-40.92910925 79.48832374 -36.54963979 67.55748484 -32.17944336 55.62319946 C-30.96415904 52.30675437 -29.74876159 48.99035074 -28.53335571 45.6739502 C-27.41125091 42.6095829 -26.29171154 39.5442874 -25.17236328 36.47891235 C-23.53153251 31.99146629 -21.87641334 27.50961278 -20.20562744 23.03323364 C-19.62174474 21.46576169 -19.04162429 19.89688177 -18.46575928 18.32644653 C-17.69774225 16.23894443 -16.91230772 14.15893766 -16.12084961 12.08023071 C-15.69473389 10.94343872 -15.26861816 9.80664673 -14.82958984 8.63540649 C-11.31543801 1.68626313 -7.55716613 -0.10865171 0 0 Z " fill="#97A1A7" transform="translate(634.312255859375,321.3650817871094)"/>
<path d="M0 0 C6.85375613 1.24907009 13.46389087 2.90583741 20.12109375 4.94921875 C21.07920456 5.23886002 22.03731537 5.52850128 23.02445984 5.82691956 C26.16337084 6.77643491 29.30039284 7.73204373 32.4375 8.6875 C36.91195864 10.04302208 41.38752382 11.39486699 45.86328125 12.74609375 C47.01378967 13.09378815 48.1642981 13.44148254 49.34967041 13.79971313 C57.67420648 16.31105993 66.01076338 18.77921688 74.35546875 21.22265625 C75.51628464 21.56266159 76.67710052 21.90266693 77.87309265 22.25297546 C82.39865203 23.57746392 86.92458617 24.90062114 91.45211792 26.21835327 C94.57557109 27.12749144 97.69799166 28.04010703 100.8203125 28.953125 C101.73592453 29.21815323 102.65153656 29.48318146 103.59489441 29.75624084 C108.82572773 31.28869923 113.99082708 32.83976074 119 35 C120.04296875 37.70703125 120.04296875 37.70703125 120.1875 40.8125 C120.81908286 46.69544593 121.51389907 49.09904267 126 53 C132.88442142 57.57875253 139.43416253 57.54937286 147.47333717 57.4858551 C149.7499464 57.46842137 152.02530467 57.47619289 154.30192566 57.4901123 C159.9552398 57.51959207 165.60830646 57.50662766 171.26165771 57.49493408 C176.04635415 57.48667821 180.83049918 57.49488121 185.61511803 57.52406311 C187.83922113 57.53107561 190.06230841 57.51458476 192.28633118 57.49694824 C204.74214247 57.50034957 213.7395399 59.80204114 222.77734375 68.58203125 C232.27297733 78.91207902 235.82301214 90.74835118 236.44946289 104.57568359 C236.50389337 105.67378546 236.50389337 105.67378546 236.55942345 106.7940712 C236.63779393 108.37545186 236.71478178 109.95690153 236.79052544 111.53841019 C236.99695883 115.82654138 237.21693985 120.11396778 237.43798828 124.40136719 C237.50626973 125.72654452 237.50626973 125.72654452 237.5759306 127.07849312 C238.04112613 135.98668609 238.5972985 144.88811141 239.18359375 153.7890625 C239.23410322 154.55626743 239.28461269 155.32347237 239.33665276 156.11392593 C239.64699496 160.81448698 239.96129147 165.51477783 240.27643204 170.21501923 C240.49687812 173.51344565 240.71461827 176.81204852 240.9322958 180.11065865 C241.9182173 195.05019334 242.91547653 209.98856481 243.9921875 224.921875 C244.13488035 226.9223609 244.27754138 228.92284908 244.42016602 230.92333984 C244.66678717 234.37754514 244.92329691 237.83077316 245.18725586 241.28369141 C245.8092561 249.6977481 246.15797168 258.10217922 246.26171875 266.5390625 C246.28240921 267.43281586 246.30309967 268.32656921 246.32441711 269.24740601 C246.36713259 280.10624914 243.12622631 288.79863703 236 297 C226.62693818 305.80091801 215.67754337 310.66600121 202.73046875 310.3046875 C190.68128718 308.96014363 180.89721507 303.44383961 172.625 294.6875 C163.6176809 283.15500763 162.9464514 268.91714753 162.05444336 254.86108398 C161.97772903 253.7239798 161.90101471 252.58687561 161.82197571 251.41531372 C161.57232984 247.69258863 161.33085479 243.96938705 161.08984375 240.24609375 C160.91610969 237.61887682 160.74199475 234.99168506 160.56752014 232.36451721 C160.20306564 226.86346556 159.84316479 221.36213061 159.48608398 215.8605957 C159.0784415 209.58083025 158.66389218 203.30155131 158.24542516 197.02249855 C157.83777155 190.90338787 157.43505598 184.78396106 157.03445625 178.66438484 C156.86619251 176.10011307 156.6968071 173.53591458 156.52616692 170.97179985 C155.35510739 153.32003226 154.5318733 135.68231264 154 118 C153.24365674 117.86336032 152.48731348 117.72672064 151.70805073 117.58594036 C150.71645041 117.40633172 149.7248501 117.22672308 148.70320129 117.04167175 C147.71998303 116.86378207 146.73676477 116.68589239 145.72375202 116.50261211 C142.8271816 115.96810994 139.94938414 115.3778776 137.07421875 114.73828125 C135.53362793 114.39651855 135.53362793 114.39651855 133.96191406 114.04785156 C132.88135742 113.80518555 131.80080078 113.56251953 130.6875 113.3125 C129.51799805 113.05049805 128.34849609 112.78849609 127.14355469 112.51855469 C123.42809561 111.68314353 119.71388926 110.84236056 116 110 C114.82969238 109.73558105 113.65938477 109.47116211 112.45361328 109.19873047 C15.70785905 87.26180218 15.70785905 87.26180218 1 64 C-8.17508961 45.44010444 -4.82691458 21.66994437 -1 2 C-0.67 1.34 -0.34 0.68 0 0 Z " fill="#97A0A6" transform="translate(306,466)"/>
<path d="M0 0 C-0.23187012 1.20422607 -0.46374023 2.40845215 -0.70263672 3.64916992 C-1.57354625 8.17572551 -2.44127258 12.70288673 -3.30810547 17.23022461 C-3.68160477 19.17862986 -4.0559334 21.12687635 -4.43115234 23.07495117 C-6.47612316 33.6951663 -8.45313054 44.29403502 -10 55 C-15.61 55 -21.22 55 -27 55 C-27 64.57 -27 74.14 -27 84 C-22.71 84 -18.42 84 -14 84 C-13.97421875 85.80984375 -13.9484375 87.6196875 -13.921875 89.484375 C-13.8655518 91.90627272 -13.80820546 94.32814679 -13.75 96.75 C-13.73582031 97.93722656 -13.72164063 99.12445313 -13.70703125 100.34765625 C-13.30610339 115.02161574 -9.18494029 125.23158093 1.390625 135.36328125 C3 137 3 137 3 138 C-6.9 138 -16.8 138 -27 138 C-27 162.75 -27 187.5 -27 213 C-15.12 213 -3.24 213 9 213 C12.3 216.96 15.6 220.92 19 225 C32.20779576 236.5226632 48.57504017 240.503563 65.05908203 245.16113281 C67.75259671 245.92943071 70.4382023 246.71894203 73.12109375 247.5234375 C73.8891333 247.75353516 74.65717285 247.98363281 75.44848633 248.22070312 C76.84873781 248.64164244 78.24836938 249.0646524 79.6472168 249.49023438 C83.40990388 250.61287375 87.11392964 251.43801444 91 252 C91 252.33 91 252.66 91 253 C80.77 253 70.54 253 60 253 C60.25394531 257.99511719 60.50789062 262.99023438 60.76953125 268.13671875 C61.30113943 278.59592896 61.83153105 289.05519825 62.35839844 299.51464844 C62.4961668 302.24884946 62.63393985 304.98305025 62.77171707 307.71725082 C62.86432911 309.5553157 62.95691674 311.39338181 63.04948044 313.23144913 C63.59401808 324.04018966 64.14582333 334.84848949 64.71269226 345.65608215 C64.99761443 351.09167391 65.27614792 356.52758917 65.55429077 361.96353149 C65.68237689 364.44166729 65.8128375 366.91968178 65.94595337 369.39755249 C66.63393762 382.22309481 67.15585739 395.04687836 67.328125 407.890625 C67.37135895 409.60218781 67.37135895 409.60218781 67.41546631 411.34832764 C67.46229295 419.22911673 67.46229295 419.22911673 65.09521484 423.17626953 C60.05597907 427.56255375 55.68299426 427.42985192 49.140625 427.3125 C45.04428185 426.90490367 42.91244043 425.91244043 40 423 C35.22352551 415.91764128 35.84333121 406.50107759 35.44335938 398.22705078 C35.37239799 396.82709869 35.37239799 396.82709869 35.30000305 395.39886475 C35.1452233 392.33114239 34.99439416 389.26324051 34.84375 386.1953125 C34.73566329 384.03082345 34.62738337 381.86634404 34.5189209 379.70187378 C34.29197855 375.16119618 34.06691126 370.6204308 33.84326172 366.07958984 C33.5605255 360.34071904 33.2738728 354.60205242 32.98599243 348.86343765 C32.30322178 335.24327211 31.63713391 321.62238101 31 308 C30.96445007 307.24093857 30.92890015 306.48187714 30.89227295 305.69981384 C30.07515358 288.11785684 30 270.62341447 30 253 C11.19 253 -7.62 253 -27 253 C-26.9685791 260.49581787 -26.9685791 260.49581787 -26.93652344 268.14306641 C-26.8703081 284.63543121 -26.82588271 301.12780117 -26.79275131 317.62026405 C-26.77212552 327.62174886 -26.74400455 337.62310774 -26.69824219 347.62451172 C-26.658375 356.34167482 -26.63256731 365.05874673 -26.62364602 373.77599847 C-26.61843108 378.39181264 -26.60617369 383.00736591 -26.57707977 387.62309647 C-26.54991254 391.96839951 -26.54155763 396.31333439 -26.54756927 400.65871429 C-26.54646962 402.25264614 -26.53852336 403.8465904 -26.5231781 405.44044876 C-26.50322868 407.61957302 -26.50807747 409.7973136 -26.51898193 411.97647095 C-26.51529476 413.19508127 -26.51160759 414.4136916 -26.50780869 415.66922951 C-27.09976258 419.67511602 -28.51240029 421.84466629 -31 425 C-35.7724092 428.48365735 -42.40339561 427.52969108 -48 427 C-52.54026521 425.24761694 -54.19501927 423.12188923 -56.1239624 418.82485962 C-58.82602731 411.76638435 -58.52913852 404.61026422 -58.45410156 397.17724609 C-58.45297136 395.59943674 -58.45361032 394.02162528 -58.45587158 392.44381714 C-58.45701292 388.18815928 -58.43359847 383.93295814 -58.40557575 379.67740583 C-58.38046461 375.21982649 -58.37821248 370.76223511 -58.37347412 366.30459595 C-58.36107276 357.87582847 -58.32828984 349.44727006 -58.28807616 341.01859438 C-58.24326976 331.41760739 -58.22134917 321.81661009 -58.20129442 312.21554446 C-58.1595545 292.47691323 -58.08925801 272.73846982 -58 253 C-59.18758911 253.02356567 -59.18758911 253.02356567 -60.39916992 253.04760742 C-63.99520695 253.11006699 -67.5911297 253.14902635 -71.1875 253.1875 C-72.43337891 253.21263672 -73.67925781 253.23777344 -74.96289062 253.26367188 C-76.16494141 253.27333984 -77.36699219 253.28300781 -78.60546875 253.29296875 C-79.71043701 253.3086792 -80.81540527 253.32438965 -81.95385742 253.34057617 C-86.2923283 252.8555103 -88.90831581 251.22278163 -91.7890625 247.99609375 C-93.64745684 243.39806646 -93.43310947 238.97275057 -93.375 234.0625 C-93.38660156 233.08603516 -93.39820313 232.10957031 -93.41015625 231.10351562 C-93.3882617 225.72110562 -93.26115995 221.50645521 -90 217 C-84 213 -84 213 -58 213 C-58 188.25 -58 163.5 -58 138 C-67.24 138 -76.48 138 -86 138 C-91.03086563 133.9753075 -92.55924459 132.54494247 -93.31884766 126.43554688 C-93.35026855 125.53900391 -93.38168945 124.64246094 -93.4140625 123.71875 C-93.45305664 122.71755127 -93.49205078 121.71635254 -93.53222656 120.68481445 C-93.5628418 119.63382568 -93.59345703 118.58283691 -93.625 117.5 C-93.66077148 116.42516357 -93.69654297 115.35032715 -93.73339844 114.24291992 C-93.80082075 112.11831456 -93.86345982 109.99355105 -93.92089844 107.86865234 C-93.98675144 105.48046489 -94.07118344 103.0942583 -94.1640625 100.70703125 C-94.19242188 99.58683594 -94.22078125 98.46664062 -94.25 97.3125 C-94.27578125 96.38050781 -94.3015625 95.44851563 -94.328125 94.48828125 C-93.90770346 91.30008454 -92.94791024 89.55345625 -91 87 C-87.05259801 84.0759336 -84.25241345 83.6403779 -79.38671875 83.70703125 C-77.70002075 83.71827026 -77.70002075 83.71827026 -75.97924805 83.72973633 C-73.85483276 83.77070435 -73.85483276 83.77070435 -71.6875 83.8125 C-67.170625 83.874375 -62.65375 83.93625 -58 84 C-58 74.43 -58 64.86 -58 55 C-66.66080924 55.11838075 -66.66080924 55.11838075 -75.32104492 55.27026367 C-76.40490479 55.27775635 -77.48876465 55.28524902 -78.60546875 55.29296875 C-80.26292114 55.31653442 -80.26292114 55.31653442 -81.95385742 55.34057617 C-86.32491911 54.85186646 -88.8124011 53.28550132 -91.77099609 50.08300781 C-95.97034371 42.96563914 -94.28613411 31.22369434 -94.375 23.25 C-94.41238281 21.96222656 -94.44976562 20.67445313 -94.48828125 19.34765625 C-94.58618693 8.84999209 -94.58618693 8.84999209 -91.7265625 5.234375 C-87.11717504 1.45705462 -84.2454049 0.74715335 -78.25048828 0.68115234 C-77.244589 0.66608391 -77.244589 0.66608391 -76.21836853 0.65071106 C-74.0023581 0.61984811 -71.78647001 0.60281385 -69.5703125 0.5859375 C-68.01772055 0.56719969 -66.4651385 0.54762438 -64.91256714 0.5272522 C-60.81793232 0.4758834 -56.72326349 0.43633329 -52.628479 0.39910889 C-48.51004284 0.35944771 -44.39175694 0.30794725 -40.2734375 0.2578125 C-26.84863353 0.09931199 -13.42595628 -0.02832725 0 0 Z " fill="#959FA6" transform="translate(290,323)"/>
<path d="M0 0 C1.19367188 0.43570313 2.38734375 0.87140625 3.6171875 1.3203125 C11.65840669 4.48492134 18.33189945 8.53054592 25 14 C26.28003906 15.03447266 26.28003906 15.03447266 27.5859375 16.08984375 C42.92871069 29.14300309 52.47005711 47.24730199 56 67 C57.82310035 90.34029986 53.61245134 112.85185433 38.875 131.5625 C37.59151458 133.04877117 36.3007179 134.5287863 35 136 C34.54496094 136.59683594 34.08992187 137.19367188 33.62109375 137.80859375 C22.86398167 151.71256249 5.56796135 159.71258217 -11 164 C-11.81597656 164.22558594 -12.63195312 164.45117188 -13.47265625 164.68359375 C-34.76225499 169.83716941 -56.41927852 163.69057408 -74.75 152.75 C-94.505585 139.4312948 -108.22881054 119.16992229 -113.01879883 95.77099609 C-116.95758299 73.22925814 -112.49879431 50.41873812 -99.64453125 31.3984375 C-87.79545786 14.84973162 -71.48774915 3.55200176 -52 -2 C-51.3611084 -2.18401367 -50.7222168 -2.36802734 -50.06396484 -2.55761719 C-34.47355934 -6.57424979 -14.99562115 -5.81757833 0 0 Z " fill="#98A1A7" transform="translate(520,93)"/>
<path d="M0 0 C15.32562559 -0.09368781 30.65123793 -0.16409848 45.97708607 -0.20724869 C53.0941154 -0.22782196 60.21096618 -0.25584144 67.32788086 -0.30175781 C73.53529017 -0.34178701 79.74257009 -0.36747081 85.95010489 -0.37635398 C89.23313858 -0.38154181 92.51571872 -0.39576351 95.79865456 -0.42292023 C99.47512035 -0.45211262 103.15082885 -0.45594923 106.82739258 -0.45410156 C107.90058243 -0.46848267 108.97377228 -0.48286377 110.07948303 -0.49768066 C120.75674168 -0.43991772 129.32560122 2.40907595 137.05859375 9.8515625 C145.07388461 18.72160269 146.3648943 27.34600975 146.3125 39 C146.30926727 40.00767426 146.30926727 40.00767426 146.30596924 41.03570557 C146.20599127 61.04459117 144.6259024 80.97903985 143.15309906 100.92371368 C142.92939074 103.95758291 142.70705561 106.99155251 142.48458481 110.0255127 C141.38543652 125.01171514 140.28083632 139.99750724 139.15771484 154.98193359 C139.06323877 156.24545025 139.06323877 156.24545025 138.9668541 157.53449249 C138.65628223 161.68699852 138.34375615 165.83933806 138.02722168 169.99139404 C137.45999352 177.47717423 136.92845459 184.9607413 136.51220703 192.45654297 C136.4356337 193.76421127 136.35906036 195.07187958 136.28016663 196.41917419 C136.14401898 198.79689391 136.02029892 201.17538138 135.91307068 203.55458069 C135.13718659 216.82260744 131.35340273 227.61631574 122.6875 237.6875 C111.58839765 247.23789039 100.63036874 251.07447995 85.96777344 250.22216797 C75.06972246 248.99174286 65.4651951 242.55002928 58.6875 234.1875 C57.75614485 232.81511316 56.85946811 231.41851423 56 230 C55.58621094 229.33097656 55.17242188 228.66195312 54.74609375 227.97265625 C51.9461934 222.4216343 51.74661855 217.18598291 51.80712891 211.109375 C51.81208185 210.23655884 51.8170348 209.36374268 51.82213783 208.46447754 C51.94282708 197.78484809 52.70177147 187.14949613 53.4609375 176.5 C53.61367511 174.28641739 53.76581218 172.07279327 53.91738892 169.85913086 C54.31498896 164.07628792 54.72076714 158.29404811 55.12835693 152.51190186 C55.53600322 146.70750704 55.93555073 140.9025555 56.3359375 135.09765625 C58.6023517 102.31065738 58.6023517 102.31065738 59.67285156 87.828125 C59.76853424 86.52544678 59.86421692 85.22276855 59.96279907 83.88061523 C60.12994744 81.6194806 60.29983703 79.35854554 60.47348022 77.09790039 C60.89709825 71.37926603 61.07308608 65.73467315 61 60 C59.7632251 59.79318604 58.5264502 59.58637207 57.25219727 59.37329102 C52.68005843 58.60764959 48.1088208 57.83674206 43.5378418 57.06420898 C41.55631448 56.73007929 39.57454309 56.39739384 37.5925293 56.06616211 C34.74983935 55.59084105 31.9080569 55.11039649 29.06640625 54.62890625 C28.17474258 54.48095108 27.28307892 54.33299591 26.36439514 54.18055725 C20.11387171 53.11387171 20.11387171 53.11387171 19 52 C18.82066122 50.50888327 18.70019942 49.01059086 18.60546875 47.51171875 C17.39015377 30.43209707 15.02254974 15.2565174 2 3 C2 2.34 2 1.68 2 1 C1.34 0.67 0.68 0.34 0 0 Z " fill="#97A0A6" transform="translate(532,525)"/>
<path d="M0 0 C1.01682358 -0.00525696 2.03364716 -0.01051392 3.08128357 -0.01593018 C6.43911138 -0.02912325 9.79646432 -0.02039427 13.15429688 -0.01025391 C15.48929943 -0.01227483 17.82430137 -0.01518643 20.15930176 -0.01895142 C25.05173759 -0.02337384 29.94400906 -0.01694615 34.83642578 -0.00292969 C41.1079339 0.01416194 47.37905686 0.00432035 53.65055084 -0.01364708 C58.47181094 -0.02448698 63.29297971 -0.02103758 68.11424255 -0.0132637 C70.4267125 -0.01126228 72.73919073 -0.01371894 75.051651 -0.02070236 C78.28335541 -0.02832 81.51443582 -0.01670761 84.74609375 0 C85.70208969 -0.00607269 86.65808563 -0.01214539 87.64305115 -0.0184021 C92.539617 0.02850174 95.91731399 0.17236376 99.87304688 3.38818359 C104.55365833 8.5728609 104.4539199 13.25602505 104.31054688 19.88818359 C104.31763672 20.81244141 104.32472656 21.73669922 104.33203125 22.68896484 C104.28320556 27.93960454 104.01383799 31.97912377 100.87304688 36.38818359 C95.76914712 40.68827697 91.89689056 40.94202865 85.52929688 40.85693359 C84.1983197 40.86750793 84.1983197 40.86750793 82.8404541 40.8782959 C79.06454214 40.90768495 75.28915253 40.89115542 71.51318359 40.87890625 C68.74740991 40.87652155 65.98246722 40.89746091 63.21679688 40.91943359 C61.94624451 40.90245422 61.94624451 40.90245422 60.65002441 40.88513184 C55.27280251 40.93083214 52.02595149 41.64651934 47.87304688 45.38818359 C45.29324705 49.702388 44.49770285 52.87661431 44.49450684 57.87780762 C44.48630417 59.16475021 44.4781015 60.45169281 44.46965027 61.77763367 C44.47560789 63.19143786 44.48182694 64.60524096 44.48828125 66.01904297 C44.48417332 67.51756706 44.47871114 69.01608796 44.47200012 70.51460266 C44.46029575 73.73450253 44.45778334 76.95423109 44.46235657 80.17414856 C44.46917633 85.26751423 44.45328137 90.36065515 44.43395996 95.45397949 C44.39613284 106.26536879 44.38330717 117.07673827 44.37304688 127.88818359 C44.36196939 139.56072489 44.34661356 151.23316247 44.30233431 162.9056325 C44.28399077 167.96693823 44.28008102 173.0279863 44.28726959 178.08931732 C44.2887928 181.23955838 44.27799925 184.38967082 44.26389122 187.53987694 C44.25989313 188.99833376 44.26100583 190.45681512 44.26766396 191.91526222 C44.27606824 193.90968416 44.26429874 195.90416043 44.25158691 197.89855957 C44.2508744 199.01351051 44.2501619 200.12846146 44.2494278 201.27719879 C43.66642523 206.09601938 41.90834474 209.35288573 38.49804688 212.76318359 C32.98903276 215.23274164 27.80919671 215.24159954 21.87304688 214.38818359 C17.85506308 212.74308457 16.19264147 210.01808797 14.24589539 206.18115234 C11.91577814 199.62279831 12.48107548 192.56659364 12.5324707 185.70068359 C12.53331788 184.11331702 12.53284006 182.52594927 12.53114319 180.93858337 C12.53028536 176.64776756 12.5478766 172.3572053 12.56886506 168.06644821 C12.58766735 163.57548064 12.5893851 159.08450672 12.59294128 154.59350586 C12.60225133 146.0974259 12.626851 137.60146228 12.65698975 129.10543346 C12.69056619 119.42951134 12.70702792 109.75358356 12.72207606 100.07761765 C12.75340152 80.18106035 12.80840056 60.28466245 12.87304688 40.38818359 C2.31304688 40.38818359 -8.24695313 40.38818359 -19.12695312 40.38818359 C-19.20945312 35.39693359 -19.29195312 30.40568359 -19.37695312 25.26318359 C-19.41336914 23.69938965 -19.44978516 22.1355957 -19.48730469 20.52441406 C-19.49729492 19.28062988 -19.50728516 18.0368457 -19.51757812 16.75537109 C-19.53852539 15.48806152 -19.55947266 14.22075195 -19.58105469 12.91503906 C-18.93710342 7.91368423 -17.0028517 4.92448033 -13.11688232 1.74200439 C-8.75145025 -0.2346353 -4.73999208 -0.03010945 0 0 Z " fill="#959FA6" transform="translate(711.126953125,535.61181640625)"/>
<path d="M0 0 C0 0.99 0 1.98 0 3 C-0.99 3.66 -1.98 4.32 -3 5 C-1.125 1.125 -1.125 1.125 0 0 Z M-3 5 C-2.97087652 8.72915017 -2.95315963 12.4582709 -2.9375 16.1875 C-2.92912109 17.24259766 -2.92074219 18.29769531 -2.91210938 19.38476562 C-2.90888672 20.40634766 -2.90566406 21.42792969 -2.90234375 22.48046875 C-2.89710693 23.41785889 -2.89187012 24.35524902 -2.88647461 25.32104492 C-2.99917343 27.98049477 -3.40623351 30.40920573 -4 33 C-4.33 33 -4.66 33 -5 33 C-6.01894076 27.15111957 -6.11798453 21.49080831 -6.0625 15.5625 C-6.05798828 14.64017578 -6.05347656 13.71785156 -6.04882812 12.76757812 C-6.03713938 10.51164952 -6.02075455 8.25586033 -6 6 C-4 5 -4 5 -3 5 Z " fill="#9FA8AE" transform="translate(698,539)"/>
<path d="M0 0 C3.16658663 -0.05880804 6.33302993 -0.09386406 9.5 -0.125 C10.386875 -0.14175781 11.27375 -0.15851562 12.1875 -0.17578125 C17.82323788 -0.2172205 22.59300232 0.39558714 28 2 C28 2.33 28 2.66 28 3 C18.76 3 9.52 3 0 3 C0 2.01 0 1.02 0 0 Z " fill="#9EA6AD" transform="translate(445,524)"/>
<path d="M0 0 C0.33 0 0.66 0 1 0 C0.91297874 2.27155498 0.80480478 4.54230743 0.6875 6.8125 C0.62949219 8.07707031 0.57148438 9.34164063 0.51171875 10.64453125 C0 14 0 14 -1.54296875 15.94921875 C-2.02378906 16.29597656 -2.50460937 16.64273437 -3 17 C-2.22095672 5.47835991 -2.22095672 5.47835991 0 0 Z " fill="#808C94" transform="translate(300,323)"/>
<path d="M0 0 C3 3 3 3 3.29296875 5.91796875 C3.25816406 6.99691406 3.22335937 8.07585938 3.1875 9.1875 C3.16042969 10.27417969 3.13335937 11.36085938 3.10546875 12.48046875 C3.07066406 13.31191406 3.03585937 14.14335938 3 15 C2.67 14.34 2.34 13.68 2 13 C1.34 13 0.68 13 0 13 C0 8.71 0 4.42 0 0 Z " fill="#9EA8AE" transform="translate(349,612)"/>
<path d="M0 0 C2.98093122 2.5550839 4.52359755 5.38281401 6 9 C5.6875 11.375 5.6875 11.375 5 13 C4.67 11.35 4.34 9.7 4 8 C3.34 8 2.68 8 2 8 C0.23537317 4.91190305 0 3.76687864 0 0 Z " fill="#7B8890" transform="translate(533,541)"/>
<path d="M0 0 C0.66 0.66 1.32 1.32 2 2 C1.75 3.6875 1.75 3.6875 1 6 C0.649375 7.2375 0.29875 8.475 -0.0625 9.75 C-0.371875 10.8225 -0.68125 11.895 -1 13 C-1.33 13 -1.66 13 -2 13 C-1.85851011 11.3954444 -1.71164314 9.79136233 -1.5625 8.1875 C-1.48128906 7.29417969 -1.40007812 6.40085937 -1.31640625 5.48046875 C-1 3 -1 3 0 0 Z " fill="#7F8A93" transform="translate(376,325)"/>
</svg>
