<?xml version="1.0" encoding="UTF-8"?>
<svg version="1.1" xmlns="http://www.w3.org/2000/svg" width="1024" height="1024">
<path d="M0 0 C337.92 0 675.84 0 1024 0 C1024 337.92 1024 675.84 1024 1024 C686.08 1024 348.16 1024 0 1024 C0 686.08 0 348.16 0 0 Z " fill="none" transform="translate(0,0)"/>
<path d="M0 0 C9.11750405 -0.46005754 9.11750405 -0.46005754 13.15625 2.828125 C14.23806311 3.95766515 15.27948165 5.1270252 16.28125 6.328125 C16.8278125 6.95460937 17.374375 7.58109375 17.9375 8.2265625 C19.10119727 9.56481436 20.25991939 10.90740595 21.4140625 12.25390625 C34.92284244 27.26052163 55.72922192 38.20912919 76.05761719 39.50512695 C91.7959183 39.82442162 105.28253649 38.95210192 120.359375 34.3984375 C123.84083252 34.31465911 125.19493785 35.31828787 127.71972656 37.640625 C128.2144043 38.135625 128.70908203 38.630625 129.21875 39.140625 C129.74307617 39.64980469 130.26740234 40.15898437 130.80761719 40.68359375 C153.74407621 63.49239159 159.76660748 103.11020753 168.18774414 133.42602539 C169.26685253 137.30609138 170.37097514 141.17861572 171.47994518 145.05023479 C172.34402108 148.08428442 173.18948045 151.12329752 174.02999306 154.16394997 C174.42928101 155.59591202 174.83546564 157.02597185 175.24907494 158.45386314 C177.48773334 166.20595106 179.18427828 172.551413 176.28125 180.328125 C176.04126785 181.07979446 175.80128571 181.83146393 175.55403137 182.60591125 C174.76314321 185.05782059 173.91443089 187.48297279 173.05078125 189.91015625 C172.73727219 190.80441818 172.42376312 191.69868011 172.10075378 192.62004089 C171.10322365 195.46195231 170.09866641 198.30131813 169.09375 201.140625 C168.43897812 203.00178608 167.78467787 204.86311316 167.13085938 206.72460938 C165.83410878 210.41448402 164.53465353 214.10338781 163.23291016 217.79150391 C160.23194939 226.29772239 157.25755149 234.8132543 154.28125 243.328125 C153.29125 243.328125 152.30125 243.328125 151.28125 243.328125 C149.70435497 241.25554587 148.33604605 239.22218276 146.96875 237.015625 C142.98300169 230.8138246 138.79624198 224.81310353 134.40625 218.890625 C133.8191626 218.09172852 133.2320752 217.29283203 132.62719727 216.46972656 C129.73356116 212.55133527 126.7923998 208.69322373 123.71875 204.9140625 C123.1604248 204.21337646 122.60209961 203.51269043 122.02685547 202.79077148 C120.9837385 201.48726813 119.92147283 200.19874482 118.83642578 198.92993164 C112.79355978 191.31152266 115.33834842 181.22472432 116.15625 172.09765625 C116.24503418 171.06299728 116.33381836 170.02833832 116.42529297 168.96232605 C116.70660042 165.68806364 116.99341026 162.41431913 117.28125 159.140625 C117.56863546 155.85618532 117.85472473 152.57165412 118.13720703 149.28678894 C118.31230202 147.25195522 118.49021421 145.2173613 118.67138672 143.18305969 C119.10057652 138.20859774 119.37797301 133.32101873 119.28125 128.328125 C115.80977158 127.57855343 115.80977158 127.57855343 112.28125 127.328125 C111.46027007 135.02432965 110.64283465 142.7209054 109.82763672 150.41772461 C109.55107107 153.02522913 109.27375221 155.6326539 108.99560547 158.23999023 C107.25201212 174.59011201 105.63071177 190.94051066 104.28125 207.328125 C101.05859375 206.05859375 97.8359375 204.7890625 94.61328125 203.51953125 C89.4801763 201.6841303 85.39632617 201.25565004 79.95703125 201.57421875 C51.64968679 202.46208749 26.00229938 194.52406279 -0.88867188 186.38183594 C-5.49919242 184.98626442 -10.11876958 183.63186869 -14.75195312 182.31347656 C-15.865401 181.99553131 -16.97884888 181.67758606 -18.1260376 181.3500061 C-20.23184921 180.75061997 -22.33901213 180.15595483 -24.44769287 179.56674194 C-25.84305267 179.16753036 -25.84305267 179.16753036 -27.26660156 178.76025391 C-28.0817926 178.53077057 -28.89698364 178.30128723 -29.73687744 178.06484985 C-31.71875 177.328125 -31.71875 177.328125 -33.71875 175.328125 C-33.61289213 172.41290299 -33.37958777 169.6319567 -33.03515625 166.7421875 C-32.88935875 165.41642197 -32.88935875 165.41642197 -32.74061584 164.06387329 C-32.41454027 161.15007048 -32.06937142 158.23907199 -31.71875 155.328125 C-31.60102234 154.34517456 -31.48329468 153.36222412 -31.36199951 152.3494873 C-30.49050596 145.13013393 -29.57700226 137.91633501 -28.65625 130.703125 C-28.25098228 127.51669846 -27.84650234 124.33017658 -27.4434967 121.14346313 C-27.19559385 119.18427878 -26.94637823 117.22525985 -26.69554138 115.26644897 C-26.4704535 113.49162817 -26.25011609 111.71619675 -26.03512573 109.94012451 C-25.81554456 108.12726133 -25.5840004 106.31582289 -25.3430481 104.50567627 C-25.23314545 103.6061322 -25.1232428 102.70658813 -25.01000977 101.77978516 C-24.85412132 100.5682225 -24.85412132 100.5682225 -24.69508362 99.33218384 C-24.48811947 97.09295041 -24.48811947 97.09295041 -26.71875 95.328125 C-29.32155568 95.64853897 -29.32155568 95.64853897 -31.71875 96.328125 C-34.49469092 112.61066976 -37.0416772 128.91788706 -39.19692993 145.29489136 C-39.41691442 146.96177339 -39.6401142 148.62823479 -39.86679077 150.29421997 C-43.17559169 167.2949319 -43.17559169 167.2949319 -40.47877502 183.41619873 C-38.41481216 185.65829459 -37.10998352 186.15844518 -34.18847656 186.94042969 C-32.80577576 187.32207275 -32.80577576 187.32207275 -31.3951416 187.71142578 C-29.89243713 188.10177002 -29.89243713 188.10177002 -28.359375 188.5 C-26.79189514 188.92563232 -26.79189514 188.92563232 -25.19274902 189.35986328 C-21.78842441 190.28029785 -18.37887532 191.17944406 -14.96875 192.078125 C-12.63803605 192.70359747 -10.30763255 193.33022787 -7.97753906 193.95800781 C-1.2303869 195.77018494 5.52375734 197.55493508 12.28125 199.328125 C13.65337646 199.68825684 13.65337646 199.68825684 15.05322266 200.05566406 C23.50925709 202.27168377 31.97213478 204.45842296 40.45019531 206.58886719 C42.52487372 207.1306166 44.58096987 207.74490519 46.62280273 208.3996582 C50.6321112 209.41716905 54.382989 209.62451591 58.48828125 209.63671875 C60.06055051 209.66188358 61.63281604 209.68728153 63.20507812 209.71289062 C65.64688096 209.74152558 68.08861934 209.76558542 70.53051758 209.78442383 C84.69695665 209.91465375 95.76418596 211.19572913 107.28125 220.328125 C113.9304612 227.18666322 119.44878064 235.87383505 119.37890625 245.65625 C119.37568359 246.45546875 119.37246094 247.2546875 119.36914062 248.078125 C119.36076172 248.903125 119.35238281 249.728125 119.34375 250.578125 C119.33923828 251.41859375 119.33472656 252.2590625 119.33007812 253.125 C119.31832961 255.19273901 119.30039522 257.26044124 119.28125 259.328125 C118.20463104 259.33177063 117.12801208 259.33541626 116.01876831 259.33917236 C105.86631722 259.37613406 95.71416912 259.43391969 85.56194878 259.51202774 C80.34271879 259.55151539 75.12365785 259.58369763 69.90429688 259.59912109 C64.86609006 259.61427908 59.82834795 259.64870965 54.79034805 259.69643402 C52.86949836 259.71125662 50.94858233 259.71916652 49.02767563 259.72000885 C46.33419156 259.72237761 43.64199266 259.74944946 40.94873047 259.78222656 C40.15678787 259.7771962 39.36484528 259.77216583 38.54890442 259.76698303 C33.36207965 259.86446422 30.41480567 260.93040604 26.28125 264.328125 C23.54232013 268.36109999 23.54588139 272.62176589 24.28125 277.328125 C26.76517589 283.79788546 31.13601204 287.371427 37.28125 290.328125 C40.23800794 290.9763632 43.06096916 290.98413332 46.07920837 290.92698669 C46.92907257 290.93110898 47.77893677 290.93523126 48.65455443 290.93947846 C51.48370511 290.94733418 54.31136953 290.91977423 57.14038086 290.89233398 C59.17619295 290.89096257 61.21200768 290.89187622 63.24781799 290.89489746 C67.62295789 290.89691043 71.9976872 290.88361063 76.37275505 290.85857964 C83.29436977 290.81988332 90.21564476 290.82033191 97.13734436 290.82691956 C114.32787543 290.83712857 131.51823077 290.79405037 148.7086792 290.74401855 C162.07284348 290.70582268 175.43673912 290.68157062 188.80096155 290.69791275 C195.67810702 290.70474124 202.55440011 290.68327804 209.4314059 290.64023006 C213.7137331 290.61947913 217.99577526 290.62362971 222.27812767 290.63454437 C224.25944037 290.63452933 226.24078445 290.62425735 228.22198105 290.602808 C246.30039349 290.41665947 246.30039349 290.41665947 252.69173527 295.67379856 C262.54152475 305.92520852 264.89948421 315.89611723 264.7421875 329.9140625 C264.74059835 331.32496554 264.74057819 332.7358711 264.74201965 334.14677429 C264.74004234 337.89165617 264.71173355 341.63587498 264.67632675 345.38057327 C264.6561068 347.71969119 264.64319167 350.058738 264.63272095 352.3979187 C264.54313294 372.15097477 264.14659267 391.81460985 262.7716217 411.5249939 C261.88761371 424.66254822 261.39786865 437.82721943 260.81732559 450.98106003 C260.68976075 453.85659292 260.5595995 456.73200548 260.42941856 459.60742092 C259.72194904 475.26520161 259.08761893 490.92194739 258.62400818 506.58908081 C258.12711328 522.77561395 256.9615305 537.2053999 245.25390625 549.58203125 C235.59021146 558.13583634 224.73720676 561.02417046 212.03515625 560.7421875 C200.12338497 559.42829806 190.43502025 552.52883559 182.88671875 543.546875 C177.96847555 536.74988683 175.15782023 530.02838975 175.1484375 521.65258789 C175.14642334 520.4873912 175.14440918 519.32219452 175.14233398 518.12168884 C175.14922241 516.19940208 175.14922241 516.19940208 175.15625 514.23828125 C175.15746857 513.56811541 175.15868713 512.89794956 175.15994263 512.20747566 C175.19471298 495.53957242 175.63505209 478.88003669 176.06499958 462.21859074 C177.10571601 423.06776281 177.10571601 423.06776281 177.58081055 383.90725708 C177.58937398 381.99355146 177.60297043 380.07986114 177.62182617 378.16622925 C177.6448691 375.61967196 177.64852115 373.07398142 177.64453125 370.52734375 C177.65366043 369.80782532 177.66278961 369.08830688 177.67219543 368.34698486 C177.68777732 366.20458597 177.68777732 366.20458597 177.28125 363.328125 C174.50705514 361.47866176 173.0592254 360.88641407 169.9140625 360.1796875 C168.59946045 359.88130981 168.59946045 359.88130981 167.25830078 359.5769043 C166.31712402 359.37105713 165.37594727 359.16520996 164.40625 358.953125 C163.44058105 358.73760986 162.47491211 358.52209473 161.47998047 358.30004883 C151.45538589 356.0917771 141.37758391 354.17602252 131.28125 352.328125 C131.61125 353.318125 131.94125 354.308125 132.28125 355.328125 C132.5551752 358.28339299 132.78246302 361.2266939 132.97387695 364.1875 C133.03594361 365.09888922 133.09801027 366.01027843 133.16195774 366.94928551 C133.36822508 369.99199234 133.56885313 373.03504482 133.76953125 376.078125 C133.9139632 378.22395165 134.05875557 380.36975406 134.20388794 382.51553345 C134.59173607 388.26449545 134.97476453 394.01376871 135.35663986 399.76313019 C135.75060528 405.6864731 136.14797833 411.60958727 136.54516602 417.53271484 C137.01820562 424.58852066 137.49100038 431.64434186 137.96195984 438.70028687 C138.77992815 450.94357023 139.61173406 463.18562611 140.48166084 475.42533112 C140.63006508 477.51598305 140.77750336 479.60670057 140.92454529 481.69744873 C141.44104046 489.05185502 141.44104046 489.05185502 141.97134399 496.40527344 C142.76454261 507.25698833 143.42049269 518.0733116 143.48046875 528.95703125 C143.48823837 529.81257599 143.496008 530.66812073 143.50401306 531.54959106 C143.46123084 542.90166348 139.29809886 551.2363776 131.3984375 559.234375 C121.74067415 568.1725403 112.44583642 569.83375512 99.5859375 569.6015625 C87.86652195 569.08445417 79.38175927 562.83469509 71.53125 554.578125 C65.94735053 547.78934699 63.26501341 540.84722549 62.25 532.13671875 C62.16860275 531.44146591 62.08720551 530.74621307 62.00334167 530.02989197 C61.03068541 521.49932883 60.31334306 512.94544299 59.59375 504.390625 C59.43018204 502.47441826 59.26626732 500.55824111 59.10205078 498.64208984 C58.82411978 495.39706796 58.54658881 492.15201422 58.27020264 488.90686035 C57.36837758 478.31855954 56.45258415 467.73148971 55.53515625 457.14453125 C55.37967669 455.34967617 55.22420493 453.55482041 55.06874084 451.75996399 C54.83318588 449.04051188 54.59762863 446.32105996 54.36205769 443.60160923 C53.60163026 434.82308672 52.84130286 426.04455607 52.08284187 417.26586342 C51.86947899 414.79992137 51.65519531 412.33406064 51.44078064 409.86820984 C50.83267303 402.85767446 50.23588888 395.8472792 49.69628906 388.83105469 C49.6098111 387.7238205 49.52333313 386.6165863 49.43423462 385.47579956 C49.28223633 383.5080925 49.1356163 381.53995707 48.9961853 379.57131958 C48.57233935 370.36016613 48.57233935 370.36016613 44.56958008 362.45678711 C41.6558032 361.01963886 38.80349451 360.13213571 35.66796875 359.26953125 C35.00267151 359.08458099 34.33737427 358.89963074 33.6519165 358.70907593 C31.4265916 358.0938076 29.19783458 357.49211748 26.96875 356.890625 C25.38149155 356.45487345 23.79433581 356.01874764 22.20727539 355.58227539 C10.94541446 352.5044417 -0.36572934 349.63523522 -11.68945312 346.79516602 C-42.69067344 339.01722342 -42.69067344 339.01722342 -56.53125 334.453125 C-57.55420166 334.12046631 -58.57715332 333.78780762 -59.63110352 333.44506836 C-73.77458575 328.57346476 -82.7025157 321.30080712 -90.23828125 308.48828125 C-94.39407539 299.61747002 -94.03336312 290.73645552 -93.96875 281.140625 C-93.96697754 280.38944397 -93.96520508 279.63826294 -93.96337891 278.86431885 C-93.92937145 266.59776471 -93.28615119 254.50347351 -91.71875 242.328125 C-91.16522858 242.51450531 -90.61170715 242.70088562 -90.04141235 242.89291382 C-70.68270899 249.38290009 -50.98809585 254.4668786 -31.20507812 259.47119141 C-27.11700946 260.50559276 -23.03173885 261.55063016 -18.94704628 262.59827232 C-15.77068175 263.41134361 -12.59267763 264.21784945 -9.4141655 265.02248001 C-7.90577237 265.40535984 -6.3979491 265.79049244 -4.89073563 266.17798996 C-2.79552207 266.71584096 -0.69819557 267.24452643 1.39990234 267.77099609 C3.18139175 268.22350235 3.18139175 268.22350235 4.99887085 268.68515015 C8.20231299 269.31266228 11.02711403 269.52569175 14.28125 269.328125 C15.63743499 268.20278395 15.63743499 268.20278395 15.34375 265.265625 C15.3128125 263.8115625 15.3128125 263.8115625 15.28125 262.328125 C4.33738001 259.15689533 -6.6745519 256.30822151 -17.73828125 253.5859375 C-19.10628211 253.24855427 -20.47427314 252.91113116 -21.84225464 252.57366943 C-27.48660517 251.18247902 -33.13146244 249.79346739 -38.77954102 248.41748047 C-94.89302217 234.73489579 -94.89302217 234.73489579 -105.71875 219.328125 C-111.04030925 209.70057123 -113.08613253 200.81142867 -113.03125 189.890625 C-113.02778564 188.74045898 -113.02432129 187.59029297 -113.02075195 186.40527344 C-112.72549147 161.38153983 -110.62190645 136.04197155 -106.71875 111.328125 C-106.57324707 110.38275879 -106.42774414 109.43739258 -106.27783203 108.46337891 C-101.9523186 80.72058854 -95.72916463 53.98782529 -76.71875 32.328125 C-76.06519531 31.57917969 -75.41164063 30.83023437 -74.73828125 30.05859375 C-55.19748692 9.12464711 -27.48579095 2.42521685 0 0 Z " fill="#97A0A7" transform="translate(412.71875,235.671875)"/>
<path d="M0 0 C9.11750405 -0.46005754 9.11750405 -0.46005754 13.15625 2.828125 C14.23806311 3.95766515 15.27948165 5.1270252 16.28125 6.328125 C16.8278125 6.95460937 17.374375 7.58109375 17.9375 8.2265625 C19.10119727 9.56481436 20.25991939 10.90740595 21.4140625 12.25390625 C34.92284244 27.26052163 55.72922192 38.20912919 76.05761719 39.50512695 C91.7959183 39.82442162 105.28253649 38.95210192 120.359375 34.3984375 C123.84083252 34.31465911 125.19493785 35.31828787 127.71972656 37.640625 C128.2144043 38.135625 128.70908203 38.630625 129.21875 39.140625 C129.74307617 39.64980469 130.26740234 40.15898437 130.80761719 40.68359375 C153.74407621 63.49239159 159.76660748 103.11020753 168.18774414 133.42602539 C169.26685253 137.30609138 170.37097514 141.17861572 171.47994518 145.05023479 C172.34402108 148.08428442 173.18948045 151.12329752 174.02999306 154.16394997 C174.42928101 155.59591202 174.83546564 157.02597185 175.24907494 158.45386314 C177.48773334 166.20595106 179.18427828 172.551413 176.28125 180.328125 C176.04126785 181.07979446 175.80128571 181.83146393 175.55403137 182.60591125 C174.76314321 185.05782059 173.91443089 187.48297279 173.05078125 189.91015625 C172.73727219 190.80441818 172.42376312 191.69868011 172.10075378 192.62004089 C171.10322365 195.46195231 170.09866641 198.30131813 169.09375 201.140625 C168.43897812 203.00178608 167.78467787 204.86311316 167.13085938 206.72460938 C165.83410878 210.41448402 164.53465353 214.10338781 163.23291016 217.79150391 C160.23194939 226.29772239 157.25755149 234.8132543 154.28125 243.328125 C153.29125 243.328125 152.30125 243.328125 151.28125 243.328125 C149.70435497 241.25554587 148.33604605 239.22218276 146.96875 237.015625 C142.98300169 230.8138246 138.79624198 224.81310353 134.40625 218.890625 C133.8191626 218.09172852 133.2320752 217.29283203 132.62719727 216.46972656 C129.73356116 212.55133527 126.7923998 208.69322373 123.71875 204.9140625 C123.1604248 204.21337646 122.60209961 203.51269043 122.02685547 202.79077148 C120.9837385 201.48726813 119.92147283 200.19874482 118.83642578 198.92993164 C112.79355978 191.31152266 115.33834842 181.22472432 116.15625 172.09765625 C116.24503418 171.06299728 116.33381836 170.02833832 116.42529297 168.96232605 C116.70660042 165.68806364 116.99341026 162.41431913 117.28125 159.140625 C117.56863546 155.85618532 117.85472473 152.57165412 118.13720703 149.28678894 C118.31230202 147.25195522 118.49021421 145.2173613 118.67138672 143.18305969 C119.10057652 138.20859774 119.37797301 133.32101873 119.28125 128.328125 C115.80977158 127.57855343 115.80977158 127.57855343 112.28125 127.328125 C111.46027007 135.02432965 110.64283465 142.7209054 109.82763672 150.41772461 C109.55107107 153.02522913 109.27375221 155.6326539 108.99560547 158.23999023 C107.25201212 174.59011201 105.63071177 190.94051066 104.28125 207.328125 C101.05859375 206.05859375 97.8359375 204.7890625 94.61328125 203.51953125 C89.4801763 201.6841303 85.39632617 201.25565004 79.95703125 201.57421875 C51.64968679 202.46208749 26.00229938 194.52406279 -0.88867188 186.38183594 C-5.49919242 184.98626442 -10.11876958 183.63186869 -14.75195312 182.31347656 C-15.865401 181.99553131 -16.97884888 181.67758606 -18.1260376 181.3500061 C-20.23184921 180.75061997 -22.33901213 180.15595483 -24.44769287 179.56674194 C-25.84305267 179.16753036 -25.84305267 179.16753036 -27.26660156 178.76025391 C-28.0817926 178.53077057 -28.89698364 178.30128723 -29.73687744 178.06484985 C-31.71875 177.328125 -31.71875 177.328125 -33.71875 175.328125 C-33.61289213 172.41290299 -33.37958777 169.6319567 -33.03515625 166.7421875 C-32.88935875 165.41642197 -32.88935875 165.41642197 -32.74061584 164.06387329 C-32.41454027 161.15007048 -32.06937142 158.23907199 -31.71875 155.328125 C-31.60102234 154.34517456 -31.48329468 153.36222412 -31.36199951 152.3494873 C-30.49050596 145.13013393 -29.57700226 137.91633501 -28.65625 130.703125 C-28.25098228 127.51669846 -27.84650234 124.33017658 -27.4434967 121.14346313 C-27.19559385 119.18427878 -26.94637823 117.22525985 -26.69554138 115.26644897 C-26.4704535 113.49162817 -26.25011609 111.71619675 -26.03512573 109.94012451 C-25.81554456 108.12726133 -25.5840004 106.31582289 -25.3430481 104.50567627 C-25.23314545 103.6061322 -25.1232428 102.70658813 -25.01000977 101.77978516 C-24.85412132 100.5682225 -24.85412132 100.5682225 -24.69508362 99.33218384 C-24.48811947 97.09295041 -24.48811947 97.09295041 -26.71875 95.328125 C-29.32155568 95.64853897 -29.32155568 95.64853897 -31.71875 96.328125 C-34.49469092 112.61066976 -37.0416772 128.91788706 -39.19692993 145.29489136 C-39.41691442 146.96177339 -39.6401142 148.62823479 -39.86679077 150.29421997 C-43.17559169 167.2949319 -43.17559169 167.2949319 -40.47877502 183.41619873 C-38.41481216 185.65829459 -37.10998352 186.15844518 -34.18847656 186.94042969 C-32.80577576 187.32207275 -32.80577576 187.32207275 -31.3951416 187.71142578 C-29.89243713 188.10177002 -29.89243713 188.10177002 -28.359375 188.5 C-26.79189514 188.92563232 -26.79189514 188.92563232 -25.19274902 189.35986328 C-21.78842441 190.28029785 -18.37887532 191.17944406 -14.96875 192.078125 C-12.63803605 192.70359747 -10.30763255 193.33022787 -7.97753906 193.95800781 C-1.2303869 195.77018494 5.52375734 197.55493508 12.28125 199.328125 C13.65337646 199.68825684 13.65337646 199.68825684 15.05322266 200.05566406 C23.50925709 202.27168377 31.97213478 204.45842296 40.45019531 206.58886719 C42.52487372 207.1306166 44.58096987 207.74490519 46.62280273 208.3996582 C50.6321112 209.41716905 54.382989 209.62451591 58.48828125 209.63671875 C60.06055051 209.66188358 61.63281604 209.68728153 63.20507812 209.71289062 C65.64688096 209.74152558 68.08861934 209.76558542 70.53051758 209.78442383 C84.69695665 209.91465375 95.76418596 211.19572913 107.28125 220.328125 C113.9304612 227.18666322 119.44878064 235.87383505 119.37890625 245.65625 C119.37568359 246.45546875 119.37246094 247.2546875 119.36914062 248.078125 C119.36076172 248.903125 119.35238281 249.728125 119.34375 250.578125 C119.33923828 251.41859375 119.33472656 252.2590625 119.33007812 253.125 C119.31832961 255.19273901 119.30039522 257.26044124 119.28125 259.328125 C118.20907227 259.32955002 117.13689453 259.33097504 116.03222656 259.33244324 C105.90980441 259.34913932 95.78778292 259.39199275 85.66557312 259.46021557 C80.46204913 259.49445272 75.25881772 259.51959049 70.05517578 259.52368164 C65.0298628 259.52797156 60.00520947 259.55649215 54.98010254 259.60155678 C53.06648608 259.61450955 51.15279059 259.61884735 49.23913574 259.61427879 C46.55063344 259.60935693 43.86404743 259.63553414 41.17578125 259.66870117 C40.39102921 259.66007553 39.60627716 259.65144989 38.79774475 259.64256287 C32.96066513 259.76265811 28.75290918 261.5300177 24.28125 265.328125 C22.72363231 267.95271897 22.72363231 267.95271897 22.28125 270.328125 C21.95125 269.338125 21.62125 268.348125 21.28125 267.328125 C20.4975 267.84375 19.71375 268.359375 18.90625 268.890625 C17.606875 269.6021875 17.606875 269.6021875 16.28125 270.328125 C15.62125 269.998125 14.96125 269.668125 14.28125 269.328125 C14.61125 268.998125 14.94125 268.668125 15.28125 268.328125 C15.32205783 266.32854136 15.32379356 264.32767246 15.28125 262.328125 C4.33738001 259.15689533 -6.6745519 256.30822151 -17.73828125 253.5859375 C-19.10628211 253.24855427 -20.47427314 252.91113116 -21.84225464 252.57366943 C-27.48660517 251.18247902 -33.13146244 249.79346739 -38.77954102 248.41748047 C-94.89302217 234.73489579 -94.89302217 234.73489579 -105.71875 219.328125 C-111.04030925 209.70057123 -113.08613253 200.81142867 -113.03125 189.890625 C-113.02778564 188.74045898 -113.02432129 187.59029297 -113.02075195 186.40527344 C-112.72549147 161.38153983 -110.62190645 136.04197155 -106.71875 111.328125 C-106.57324707 110.38275879 -106.42774414 109.43739258 -106.27783203 108.46337891 C-101.9523186 80.72058854 -95.72916463 53.98782529 -76.71875 32.328125 C-76.06519531 31.57917969 -75.41164063 30.83023437 -74.73828125 30.05859375 C-55.19748692 9.12464711 -27.48579095 2.42521685 0 0 Z " fill="#97A1A7" transform="translate(412.71875,235.671875)"/>
<path d="M0 0 C8.16196448 -0.07256314 16.32385633 -0.13072131 24.48606491 -0.16739559 C28.58344931 -0.18591382 32.68054523 -0.21064012 36.777771 -0.2517395 C40.57248142 -0.28938096 44.36679662 -0.30813602 48.16168785 -0.3115921 C50.17679329 -0.31812979 52.19180526 -0.34434571 54.20674133 -0.37127686 C55.99074593 -0.36695648 55.99074593 -0.36695648 57.81079102 -0.36254883 C58.83613449 -0.36841507 59.86147797 -0.37428131 60.91789246 -0.38032532 C64.52198898 0.25048877 66.18207918 1.48635177 68.70458984 4.10742188 C70.85579663 11.45102999 67.24904954 19.3727755 64.63818359 26.14648438 C64.21307999 27.28814056 63.78797638 28.42979675 63.34999084 29.60604858 C62.2011142 32.68222537 61.03811101 35.75257084 59.86837769 38.82086182 C58.64153169 42.04987057 57.43380419 45.286016 56.22412109 48.52148438 C53.82919779 54.91855911 51.41488838 61.30814222 48.99530029 67.69592285 C46.92084234 73.17895841 44.86435645 78.66868383 42.80880737 84.15882874 C41.36748092 88.00772969 39.9231184 91.85540355 38.47021484 95.69995117 C34.9246691 105.09533668 31.45602061 114.51667468 28.03554916 123.95829391 C26.61539219 127.87491174 25.18922019 131.78934582 23.76357841 135.70396996 C22.59308943 138.92044442 21.4274308 142.13851317 20.27246094 145.3605957 C18.97798057 148.96637809 17.66883064 152.56654001 16.35693359 156.16601562 C15.97621201 157.23927597 15.59549042 158.31253632 15.20323181 159.4183197 C12.1255959 167.79528064 8.95362864 175.84170617 0.70458984 180.10742188 C-1.8033486 180.4823187 -1.8033486 180.4823187 -4.50660038 180.48215199 C-5.54169052 180.48935853 -6.57678066 180.49656507 -7.64323717 180.50398999 C-8.77377423 180.49661571 -9.9043113 180.48924142 -11.06910706 180.48164368 C-12.27520486 180.48561808 -13.48130267 180.48959249 -14.7239489 180.49368733 C-18.06857861 180.50164818 -21.41269602 180.49614647 -24.75728405 180.48493683 C-28.3653618 180.47609579 -31.97340454 180.48453802 -35.58148193 180.49079895 C-42.64814541 180.50028927 -49.71470681 180.49368524 -56.78136272 180.48153601 C-65.00808703 180.46791884 -73.23478699 180.46955359 -81.46151971 180.47166934 C-96.13786029 180.47485952 -110.81415233 180.46318949 -125.49047852 180.44360352 C-139.73723834 180.42459576 -153.98394129 180.41751684 -168.23071289 180.4230957 C-183.73971298 180.42915086 -199.24868806 180.42898152 -214.75768608 180.41760987 C-216.41075798 180.41640256 -218.06382988 180.41519657 -219.71690178 180.41399193 C-220.53027652 180.41338839 -221.34365126 180.41278485 -222.18167372 180.41216302 C-227.91862502 180.4082808 -233.65556702 180.40867866 -239.392519 180.41057777 C-246.38138698 180.41269791 -253.37020511 180.40748934 -260.35905904 180.39296422 C-263.92610586 180.38571119 -267.49308 180.38165093 -271.06013298 180.38620758 C-274.92303663 180.39102221 -278.78580761 180.38038661 -282.6486969 180.36811829 C-283.78146468 180.37189761 -284.91423247 180.37567693 -286.08132654 180.37957078 C-287.11380894 180.37373859 -288.14629133 180.3679064 -289.21006107 180.36189747 C-290.10197181 180.36103069 -290.99388254 180.36016391 -291.91282088 180.35927087 C-294.52271478 180.08339489 -296.09987137 179.53364136 -298.29541016 178.10742188 C-300.55422569 174.39651064 -301.29541016 172.50731338 -301.29541016 168.10742188 C-261.03541016 168.10742188 -220.77541016 168.10742188 -179.29541016 168.10742188 C-178.30541016 164.80742187 -177.31541016 161.50742187 -176.29541016 158.10742188 C-175.74580761 156.43612111 -175.18475684 154.76842086 -174.60058594 153.10888672 C-174.30189606 152.25612656 -174.00320618 151.40336639 -173.69546509 150.52476501 C-173.22286758 149.18509422 -173.22286758 149.18509422 -172.74072266 147.81835938 C-172.04325415 145.82616151 -171.34599738 143.83388951 -170.64892578 141.84155273 C-170.28581299 140.80578094 -169.9227002 139.77000916 -169.54858398 138.70285034 C-163.7706881 122.20955835 -158.1164267 105.6912989 -152.79541016 89.04492188 C-147.90986737 73.78462294 -142.70776659 58.64856823 -137.35791016 43.54492188 C-136.99842285 42.52735809 -136.63893555 41.50979431 -136.26855469 40.46139526 C-134.27532411 34.82739445 -132.26041597 29.20210977 -130.20489502 23.59051514 C-129.61433653 21.97816087 -129.02733449 20.36449788 -128.44451904 18.74932861 C-127.68071788 16.64468708 -126.89654684 14.54903563 -126.10400391 12.45507812 C-125.67788818 11.31176025 -125.25177246 10.16844238 -124.81274414 8.99047852 C-122.77731409 5.12299767 -120.1714435 3.04543854 -116.29541016 1.10742188 C-113.43224302 0.98423338 -110.59194149 0.92158015 -107.72753906 0.90209961 C-106.83351222 0.89221417 -105.93948538 0.88232874 -105.01836681 0.87214375 C-102.01959627 0.84030894 -99.02081061 0.81562183 -96.02197266 0.79101562 C-93.89848992 0.77015208 -91.77501073 0.7489248 -89.65153503 0.72735596 C-82.74121793 0.65917544 -75.8308286 0.60172324 -68.92041016 0.54492188 C-66.56025144 0.52492275 -64.20009315 0.50487269 -61.8399353 0.48477173 C-48.73346534 0.37414709 -35.6269409 0.27445488 -22.52032948 0.18220234 C-15.0134781 0.12881878 -7.50673979 0.06715159 0 0 Z " fill="#97A1A7" transform="translate(747.29541015625,336.892578125)"/>
<path d="M0 0 C0.81973801 -0.00014603 1.63947601 -0.00029205 2.48405457 -0.0004425 C5.19488161 0.00025443 7.90564003 0.00803661 10.61645508 0.01586914 C12.49546776 0.0177341 14.37448092 0.01915763 16.25349426 0.02015686 C21.20023947 0.02397592 26.14695535 0.03380101 31.09368896 0.04486084 C36.14098717 0.05508809 41.18829012 0.0596573 46.2355957 0.06469727 C56.13990547 0.0754238 66.04419346 0.09249292 75.94848633 0.11352539 C75.79733073 2.14869495 75.64459139 4.18374691 75.49121094 6.21875 C75.40632919 7.35203232 75.32144745 8.48531464 75.23399353 9.65293884 C74.79198583 15.01044253 74.16246537 20.34057906 73.51098633 25.67602539 C73.38916992 26.70920898 73.26735352 27.74239258 73.1418457 28.80688477 C72.28000521 35.9472109 71.18731892 43.02917384 69.94848633 50.11352539 C67.63848633 50.11352539 65.32848633 50.11352539 62.94848633 50.11352539 C62.94848633 63.31352539 62.94848633 76.51352539 62.94848633 90.11352539 C64.59848633 90.11352539 66.24848633 90.11352539 67.94848633 90.11352539 C68.00004883 91.15508789 68.05161133 92.19665039 68.10473633 93.26977539 C69.17022321 108.34437597 74.25502436 120.25217982 84.96801758 131.09790039 C86.83544324 132.99847562 88.40237821 134.94799856 89.94848633 137.11352539 C89.61848633 137.77352539 89.28848633 138.43352539 88.94848633 139.11352539 C80.36848633 139.11352539 71.78848633 139.11352539 62.94848633 139.11352539 C62.94848633 162.54352539 62.94848633 185.97352539 62.94848633 210.11352539 C72.18848633 209.78352539 81.42848633 209.45352539 90.94848633 209.11352539 C93.25848633 212.74352539 95.56848633 216.37352539 97.94848633 220.11352539 C114.22956659 239.8275156 142.74301446 246.54237843 166.94848633 251.11352539 C166.94848633 251.44352539 166.94848633 251.77352539 166.94848633 252.11352539 C152.75848633 252.44352539 138.56848633 252.77352539 123.94848633 253.11352539 C124.27848633 254.10352539 124.60848633 255.09352539 124.94848633 256.11352539 C125.17088969 258.48323838 125.34276686 260.85778414 125.48925781 263.23339844 C125.53495911 263.956064 125.5806604 264.67872955 125.62774658 265.42329407 C125.77869674 267.82373023 125.92403915 270.22447447 126.06958008 272.62524414 C126.17503913 274.31226701 126.28092713 275.99926312 126.38722229 277.68623352 C126.66765513 282.15009366 126.94369039 286.61421355 127.21838379 291.07843018 C127.70542999 298.99018174 128.19748056 306.90161797 128.69458008 314.81274414 C128.74827255 315.66844246 128.80196503 316.52414078 128.85728455 317.40576935 C129.53217997 328.11793191 130.2844611 338.81612124 131.21809387 349.50935364 C132.23322851 361.18523088 133.0217739 372.87689535 133.80834961 384.57006836 C134.07463752 388.50553891 134.34944573 392.44036149 134.62426758 396.37524414 C136.11280353 418.08371396 136.11280353 418.08371396 136.31567383 428.52758789 C136.34210968 429.21388275 136.36854553 429.90017761 136.39578247 430.60726929 C136.42114067 435.89089627 134.85489019 438.859583 131.94848633 443.11352539 C127.47577924 446.2202779 123.26204997 446.60595885 117.94848633 446.55102539 C117.26270508 446.57100586 116.57692383 446.59098633 115.87036133 446.61157227 C110.74411048 446.6066808 107.75353898 445.52590546 103.94848633 442.11352539 C100.23616213 435.59219784 100.18391636 428.82766998 99.73754883 421.45727539 C99.64450795 420.0684358 99.55038162 418.67966857 99.45526123 417.29096985 C99.25300406 414.30132256 99.05888031 411.31129613 98.87103271 408.32070923 C98.57215185 403.56284704 98.25441849 398.80634546 97.93530273 394.04980469 C96.82237894 377.35665553 95.79300077 360.65850579 94.78561783 343.95869827 C94.6212733 341.24188261 94.45564938 338.52514825 94.28952026 335.80844116 C94.23527452 334.92100912 94.18102879 334.03357708 94.12513924 333.11925316 C94.01652357 331.3427403 93.90783444 329.56623194 93.79907036 327.78972816 C93.48231065 322.59671654 93.17710148 317.40318426 92.8808136 312.20896626 C92.692874 308.95023398 92.49593843 305.69208545 92.29694366 302.43401146 C92.20715718 300.93172172 92.12116519 299.42919904 92.03948212 297.92644691 C91.34003197 285.10614619 90.5503016 271.38020814 81.94848633 261.11352539 C78.00596196 258.32303155 74.34915185 257.35103919 69.63598633 256.42602539 C68.38172852 256.1746582 67.1274707 255.92329102 65.83520508 255.66430664 C64.4062793 255.39166992 64.4062793 255.39166992 62.94848633 255.11352539 C62.95309529 255.98505092 62.95770426 256.85657644 62.96245289 257.75451183 C63.07283712 278.95301788 63.1555967 300.15147445 63.20754719 321.35020733 C63.23333735 331.60174055 63.26850344 341.85308203 63.32568359 352.10449219 C63.37549364 361.03882293 63.40777144 369.97301481 63.4189288 378.90748054 C63.42545163 383.63901793 63.44079892 388.37015806 63.47713661 393.10156822 C63.51105824 397.55444075 63.5215471 402.00675213 63.51402473 406.45974159 C63.51540101 408.09441807 63.52535664 409.72911318 63.5445137 411.36367798 C63.56939387 413.59594019 63.56341251 415.82608416 63.54975891 418.05839539 C63.55436788 419.30742488 63.55897684 420.55645437 63.56372547 421.84333324 C62.78375129 425.98914461 61.12597098 427.44365655 57.94848633 430.11352539 C57.61848633 430.44352539 57.28848633 430.77352539 56.94848633 431.11352539 C53.56257847 431.44910025 50.16137673 431.43861973 46.76098633 431.48852539 C45.81416992 431.5259082 44.86735352 431.56329102 43.8918457 431.60180664 C42.96823242 431.6134082 42.04461914 431.62500977 41.09301758 431.63696289 C40.25101807 431.65678223 39.40901855 431.67660156 38.54150391 431.69702148 C34.86509449 430.86973417 32.33997784 428.95275746 29.94848633 426.11352539 C29.21019936 422.78086376 29.21019936 422.78086376 29.22695923 418.90653992 C29.22183268 418.19172968 29.21670613 417.47691945 29.21142423 416.7404483 C29.20155787 414.350455 29.23450594 411.96300162 29.26733398 409.57324219 C29.2690268 407.85824137 29.26807571 406.1432362 29.26467896 404.42823792 C29.26295715 399.7754087 29.29823679 395.12350719 29.3401227 390.47089362 C29.37762602 385.60758144 29.38115474 380.74424807 29.38827515 375.8808136 C29.40692517 366.67262345 29.45616434 357.46486061 29.51637208 348.25685865 C29.58343232 337.77332665 29.61642501 327.28977426 29.64654469 316.80608118 C29.70926322 295.24165739 29.81480135 273.67761831 29.94848633 252.11352539 C28.73789551 252.13447266 27.52730469 252.15541992 26.2800293 252.17700195 C21.77380272 252.24959079 17.26762749 252.29539374 12.76098633 252.33325195 C10.81330667 252.35332445 8.86568696 252.38058871 6.91821289 252.4152832 C4.11304912 252.46399391 1.30868446 252.4865378 -1.49682617 252.50415039 C-2.36268341 252.52479553 -3.22854065 252.54544067 -4.12063599 252.56671143 C-9.5985963 252.56872877 -12.7158764 251.78379051 -17.05151367 248.11352539 C-21.06218976 242.68681779 -20.53199602 236.58432311 -20.48901367 230.11352539 C-20.50899414 229.04618164 -20.52897461 227.97883789 -20.54956055 226.87915039 C-20.54569499 220.66333711 -20.30151309 216.78621914 -16.05151367 212.11352539 C-12.93843431 210.03813915 -12.28803173 209.86580388 -8.76367188 209.88647461 C-7.45468933 209.88683716 -7.45468933 209.88683716 -6.1192627 209.88720703 C-5.20616333 209.89743896 -4.29306396 209.9076709 -3.35229492 209.91821289 C-2.08887268 209.92123413 -2.08887268 209.92123413 -0.79992676 209.92431641 C2.34543303 209.93477785 5.49071516 209.96270046 8.63598633 209.98852539 C19.18567383 210.05040039 19.18567383 210.05040039 29.94848633 210.11352539 C29.94848633 186.68352539 29.94848633 163.25352539 29.94848633 139.11352539 C17.05434726 139.271496 17.05434726 139.271496 4.16088867 139.47387695 C2.53541111 139.48556763 0.90992177 139.49575856 -0.71557617 139.50415039 C-1.54855225 139.52461426 -2.38152832 139.54507813 -3.23974609 139.56616211 C-8.67378102 139.56939954 -11.74538815 138.74227352 -16.05151367 135.11352539 C-20.74015765 128.64643025 -20.29469554 122.07170134 -20.36401367 114.36352539 C-20.39301758 113.30391602 -20.42202148 112.24430664 -20.4519043 111.15258789 C-20.50188905 104.95447886 -20.4067082 98.92560655 -16.05151367 94.11352539 C-10.53806963 90.18110389 -6.50753268 89.55358746 0.16333008 89.72290039 C0.92295044 89.72692871 1.6825708 89.73095703 2.46520996 89.73510742 C5.2723851 89.75585873 8.07921286 89.8117031 10.88598633 89.86352539 C17.17661133 89.94602539 23.46723633 90.02852539 29.94848633 90.11352539 C29.94848633 76.91352539 29.94848633 63.71352539 29.94848633 50.11352539 C17.47332191 50.310736 17.47332191 50.310736 4.99926758 50.56396484 C3.4198578 50.57858608 1.84042899 50.59132287 0.26098633 50.60180664 C-0.54016602 50.62738647 -1.34131836 50.65296631 -2.16674805 50.67932129 C-8.13721588 50.68388308 -12.57026823 49.17733778 -17.05151367 45.11352539 C-20.23471765 39.90284435 -19.42346924 33.81014233 -19.42211914 27.89672852 C-19.42648616 25.75203659 -19.46281023 23.60941521 -19.50073242 21.46508789 C-19.50660272 20.09009487 -19.51057069 18.71509215 -19.51245117 17.34008789 C-19.52066895 16.0982373 -19.52888672 14.85638672 -19.53735352 13.5769043 C-18.84826571 8.66464319 -16.68096214 5.54546496 -12.98901367 2.30102539 C-8.79794131 -0.26769638 -4.74285379 -0.02201161 0 0 Z " fill="#96A0A7" transform="translate(222.051513671875,336.886474609375)"/>
<path d="M0 0 C20.05395744 -0.14030239 40.10781497 -0.24603575 60.16216183 -0.31087303 C69.47424181 -0.3417814 78.78601643 -0.38390391 88.09790039 -0.45263672 C96.21630089 -0.51253151 104.33448018 -0.5511711 112.4530955 -0.56453097 C116.75002945 -0.57233779 121.04633073 -0.59062159 125.34306145 -0.63438034 C129.39221094 -0.67528133 133.44047067 -0.68763425 137.48980713 -0.67864609 C138.97124133 -0.68028898 140.45270706 -0.6921206 141.93396187 -0.71523285 C150.88947079 -0.84804511 157.30069669 -0.31273795 164 6 C172.95311902 15.65719834 174.60489546 25.75671296 174.4609375 38.5859375 C174.45934835 39.99684054 174.45932819 41.4077461 174.46076965 42.81864929 C174.45879234 46.56353117 174.43048355 50.30774998 174.39507675 54.05244827 C174.3748568 56.39156619 174.36194167 58.730613 174.35147095 61.0697937 C174.26188294 80.82284977 173.86534267 100.48648485 172.4903717 120.1968689 C171.60636371 133.33442322 171.11661865 146.49909443 170.53607559 159.65293503 C170.40851075 162.52846792 170.2783495 165.40388048 170.14816856 168.27929592 C169.44069904 183.93707661 168.80636893 199.59382239 168.34275818 215.26095581 C167.84586328 231.44748895 166.6802805 245.8772749 154.97265625 258.25390625 C145.30896146 266.80771134 134.45595676 269.69604546 121.75390625 269.4140625 C109.84213497 268.10017306 100.15377025 261.20071059 92.60546875 252.21875 C87.68722555 245.42176183 84.87657023 238.70026475 84.8671875 230.32446289 C84.86517334 229.1592662 84.86315918 227.99406952 84.86108398 226.79356384 C84.86567627 225.51203934 84.87026855 224.23051483 84.875 222.91015625 C84.87621857 222.23999041 84.87743713 221.56982456 84.87869263 220.87935066 C84.91346298 204.21144742 85.35380209 187.55191169 85.78374958 170.89046574 C86.82446601 131.73963781 86.82446601 131.73963781 87.29956055 92.57913208 C87.30812398 90.66542646 87.32172043 88.75173614 87.34057617 86.83810425 C87.3636191 84.29154696 87.36727115 81.74585642 87.36328125 79.19921875 C87.37697502 78.1199411 87.37697502 78.1199411 87.39094543 77.01885986 C87.40652732 74.87646097 87.40652732 74.87646097 87 72 C84.21452121 70.14301414 82.75881214 69.5560767 79.59765625 68.8515625 C78.7161792 68.65272461 77.83470215 68.45388672 76.92651367 68.24902344 C75.98138916 68.0430957 75.03626465 67.83716797 74.0625 67.625 C73.09352783 67.40875977 72.12455566 67.19251953 71.1262207 66.96972656 C63.46976169 65.27754041 55.78811182 63.71721721 48.08422852 62.25634766 C42.10431624 61.10431624 42.10431624 61.10431624 41 60 C40.76146363 58.29092832 40.57956744 56.57388624 40.421875 54.85546875 C38.7402006 37.9529773 37.30313903 24.88221551 24 13 C18.39180262 8.78981148 12.44740547 5.49883478 5.97265625 2.82421875 C3.93012589 1.97080508 1.97506987 0.99819779 0 0 Z " fill="#77838C" transform="translate(503,527)"/>
<path d="M0 0 C15.41417568 12.87190712 25.07929362 32.55660372 28.5625 52.12890625 C30.4549515 79.03826145 24.11821637 101.18000275 6.328125 121.70703125 C-8.80510035 137.8293563 -30.08578264 146.8241934 -52.08959961 147.53100586 C-75.63176445 147.83707722 -96.05189687 139.43385187 -113.265625 123.26171875 C-113.98234375 122.55789062 -114.6990625 121.8540625 -115.4375 121.12890625 C-115.98921875 120.59007812 -116.5409375 120.05125 -117.109375 119.49609375 C-132.50025911 103.02950268 -137.34170182 80.55346393 -136.77734375 58.7578125 C-135.79952431 38.02177671 -125.19786989 17.5499573 -110.4375 3.12890625 C-77.90369414 -25.29996303 -33.99919573 -26.0987416 0 0 Z " fill="#98A1A8" transform="translate(555.4375,118.87109375)"/>
<path d="M0 0 C14.49929799 -0.09351512 28.99854909 -0.16374818 43.49808693 -0.20724869 C50.23076088 -0.22785841 56.96324724 -0.25594818 63.69580078 -0.30175781 C70.19264396 -0.34594249 76.68936542 -0.36913575 83.18635178 -0.37950897 C85.66549116 -0.38690176 88.14461984 -0.40133801 90.6236763 -0.42292023 C94.09521819 -0.45194183 97.56595404 -0.45595636 101.03759766 -0.45410156 C102.57616425 -0.47567322 102.57616425 -0.47567322 104.14581299 -0.49768066 C110.0878705 -0.46331059 113.47725061 0.03648204 118 4 C121.90264975 9.34654765 121.48170172 15.14298853 121.4375 21.5 C121.45748047 22.51964844 121.47746094 23.53929687 121.49804688 24.58984375 C121.49420324 30.50135134 121.26476706 34.51525327 117 39 C112.67269445 41.58043616 109.54845264 42.35563776 104.53515625 42.30078125 C102.71661133 42.31334961 102.71661133 42.31334961 100.86132812 42.32617188 C98.33261285 42.3170711 95.80391212 42.29627272 93.27539062 42.26367188 C85.4882477 42.2136691 85.4882477 42.2136691 78.80078125 45.71875 C76.37045718 48.28958613 74.5809772 50.94920588 73.125 54.1875 C72.73570312 55.02667969 72.34640625 55.86585938 71.9453125 56.73046875 C70.26209527 60.77158119 69.8752664 63.81220107 69.87542725 68.17355347 C69.87286423 69.46623138 69.87030121 70.7589093 69.86766052 72.09075928 C69.86973049 73.52648933 69.87185324 74.96221931 69.87402344 76.39794922 C69.87262872 77.90750176 69.87072943 79.4170539 69.86836243 80.92660522 C69.8638644 84.17925201 69.86200932 87.43188617 69.86190033 90.68453598 C69.86076062 95.82773796 69.84792719 100.97086807 69.83233643 106.11404419 C69.82976357 106.981829 69.82719072 107.84961382 69.8245399 108.74369514 C69.81927334 110.51823812 69.81398786 112.29278105 69.80868387 114.06732392 C69.77356194 126.04212686 69.74702356 138.0168405 69.74951172 149.99169922 C69.75109963 158.06807178 69.73508128 166.14419942 69.69880509 174.22049344 C69.68033325 178.49474597 69.67101274 182.76858949 69.68328094 187.04287338 C69.69470893 191.06336544 69.68303533 195.0831249 69.65364647 199.10351944 C69.64700049 200.57851079 69.64888209 202.05356909 69.65994453 203.52853394 C69.67380018 205.54315549 69.65398597 207.55792455 69.63250732 209.57247925 C69.63104076 210.69962278 69.6295742 211.82676632 69.6280632 212.98806572 C68.80255962 216.94684331 67.05648392 218.44557333 64 221 C60.39031177 222.80484412 56.2255929 222.31305733 52.25 222.375 C50.90808594 222.43107422 50.90808594 222.43107422 49.5390625 222.48828125 C45.11393225 222.54702192 41.97065623 222.48994385 38.421875 219.6640625 C34.68458372 215.55304209 34.87582938 212.48626164 34.87974548 207.10945129 C34.87889106 206.40451701 34.87803663 205.69958273 34.87715632 204.97328681 C34.87550611 202.60561932 34.88101539 200.23802231 34.88647461 197.87036133 C34.88675661 196.17535911 34.8865985 194.48035676 34.8860321 192.78535461 C34.88574462 188.17823052 34.89163352 183.57113235 34.89860606 178.96401429 C34.90484767 174.15135977 34.90544404 169.33870469 34.90663147 164.52604675 C34.9097424 155.41007093 34.91795259 146.29410707 34.92798096 137.17813653 C34.93914948 126.80099879 34.94465441 116.42386049 34.94967639 106.04671824 C34.96013539 84.697804 34.97847792 63.34890615 35 42 C24.11 42 13.22 42 2 42 C1.5625 30 1.5625 30 1.43188477 26.328125 C1.19677643 20.06122023 0.88156126 13.80495406 0.48022461 7.546875 C0.43395683 6.81645996 0.38768906 6.08604492 0.34001923 5.33349609 C0.22731093 3.55562392 0.11374608 1.77780608 0 0 Z " fill="#96A0A7" transform="translate(686,547)"/>
<path d="M0 0 C0.85574112 0.00565979 1.71148224 0.01131958 2.59315491 0.01715088 C5.30357836 0.03938993 8.01263816 0.08956075 10.72265625 0.140625 C12.56964225 0.16070622 14.41664915 0.17895414 16.26367188 0.1953125 C20.77135195 0.23921353 25.27802358 0.30815231 29.78515625 0.390625 C29.78515625 0.720625 29.78515625 1.050625 29.78515625 1.390625 C16.25515625 1.720625 2.72515625 2.050625 -11.21484375 2.390625 C-11.87484375 3.710625 -12.53484375 5.030625 -13.21484375 6.390625 C-14.71484375 8.640625 -14.71484375 8.640625 -16.21484375 10.390625 C-16.87484375 10.390625 -17.53484375 10.390625 -18.21484375 10.390625 C-18.21484375 19.960625 -18.21484375 29.530625 -18.21484375 39.390625 C-21.28964099 34.77842914 -20.58338741 30.12968279 -20.58984375 24.703125 C-20.61433594 23.63900391 -20.63882813 22.57488281 -20.6640625 21.47851562 C-20.68703404 15.28002801 -20.56822756 9.20135481 -16.21484375 4.390625 C-10.70150293 0.45840264 -6.66915016 -0.16853641 0 0 Z " fill="#828D96" transform="translate(222.21484375,426.609375)"/>
<path d="M0 0 C5.852795 0.51482919 11.3297637 1.45357192 17 3 C17 3.33 17 3.66 17 4 C2.48 4 -12.04 4 -27 4 C-26.67 3.34 -26.34 2.68 -26 2 C-17.42 1.67 -8.84 1.34 0 1 C0 0.67 0 0.34 0 0 Z " fill="#7E8A93" transform="translate(372,585)"/>
<path d="M0 0 C6.27 0 12.54 0 19 0 C18.67 1.32 18.34 2.64 18 4 C12.06 4 6.12 4 0 4 C0 2.68 0 1.36 0 0 Z " fill="#808B94" transform="translate(543,491)"/>
<path d="M0 0 C1.32 0.33 2.64 0.66 4 1 C-0.95 5.95 -5.9 10.9 -11 16 C-11.33 14.68 -11.66 13.36 -12 12 C-10.16979686 9.66057503 -8.42984657 7.73208552 -6.3125 5.6875 C-5.76916016 5.12482422 -5.22582031 4.56214844 -4.66601562 3.98242188 C-3.05078125 2.38671875 -3.05078125 2.38671875 0 0 Z " fill="#8A959D" transform="translate(345,259)"/>
<path d="M0 0 C0.66 0 1.32 0 2 0 C2.90789485 3.90980526 3.19467208 7.61372605 3.25 11.625 C3.27578125 12.75164063 3.3015625 13.87828125 3.328125 15.0390625 C3 18 3 18 0 21 C0 14.07 0 7.14 0 0 Z " fill="#818D96" transform="translate(674,601)"/>
<path d="M0 0 C0.99 0.33 1.98 0.66 3 1 C3.33 1.99 3.66 2.98 4 4 C3.34 4 2.68 4 2 4 C2 7.63 2 11.26 2 15 C1.34 15 0.68 15 0 15 C-1.47193312 12.05613377 -0.84936173 9.62609964 -0.5625 6.375 C-0.46066406 5.18648438 -0.35882813 3.99796875 -0.25390625 2.7734375 C-0.17011719 1.85820312 -0.08632813 0.94296875 0 0 Z " fill="#8F99A1" transform="translate(321,478)"/>
<path d="M0 0 C3.67952474 4.90603299 3.29124516 6.17509683 3 12 C2.01 12 1.02 12 0 12 C0 8.04 0 4.08 0 0 Z " fill="#9EA7AE" transform="translate(553,749)"/>
<path d="M0 0 C0.99 0.33 1.98 0.66 3 1 C3 3.64 3 6.28 3 9 C2.01 9.33 1.02 9.66 0 10 C0 6.7 0 3.4 0 0 Z " fill="#A0A9B0" transform="translate(350,679)"/>
<path d="M0 0 C3.317124 4.422832 3.30466674 5.71910976 3 11 C2.01 11.33 1.02 11.66 0 12 C0 8.04 0 4.08 0 0 Z " fill="#A0A8AF" transform="translate(547,661)"/>
<path d="M0 0 C0.6875 1.8125 0.6875 1.8125 1 4 C-0.4375 5.75 -0.4375 5.75 -2 7 C-2.66 5.35 -3.32 3.7 -4 2 C-2.68 1.34 -1.36 0.68 0 0 Z " fill="#818C95" transform="translate(567,473)"/>
<path d="M0 0 C0.33 0 0.66 0 1 0 C0.67 4.62 0.34 9.24 0 14 C-0.33 14 -0.66 14 -1 14 C-1.22142255 12.04310341 -1.4267568 10.08438048 -1.625 8.125 C-1.74101562 7.03445313 -1.85703125 5.94390625 -1.9765625 4.8203125 C-1.98429687 3.88960938 -1.99203125 2.95890625 -2 2 C-1.34 1.34 -0.68 0.68 0 0 Z " fill="#A1A9AF" transform="translate(382,397)"/>
<path d="M0 0 C0.33 0 0.66 0 1 0 C0.67 4.62 0.34 9.24 0 14 C-0.33 14 -0.66 14 -1 14 C-1.22142255 12.04310341 -1.4267568 10.08438048 -1.625 8.125 C-1.74101562 7.03445313 -1.85703125 5.94390625 -1.9765625 4.8203125 C-1.98429687 3.88960938 -1.99203125 2.95890625 -2 2 C-1.34 1.34 -0.68 0.68 0 0 Z " fill="#9FA8AF" transform="translate(388,349)"/>
</svg>
